solid STL generated by MeshLab
  facet normal  0.000000e+00  1.000000e+00  0.000000e+00
    outer loop
      vertex  -1.023894e+00  1.400000e+00  1.096194e+00
      vertex   1.049153e+00  1.400000e+00  1.072044e+00
      vertex  -1.118034e+00  1.400000e+00  1.000000e+00
    endloop
  endfacet
  facet normal -0.000000e+00  1.000000e+00  0.000000e+00
    outer loop
      vertex  -1.118034e+00  1.400000e+00  1.000000e+00
      vertex   1.049153e+00  1.400000e+00  1.072044e+00
      vertex   1.141027e+00  1.400000e+00  9.736825e-01
    endloop
  endfacet
  facet normal  0.000000e+00  1.000000e+00  0.000000e+00
    outer loop
      vertex  -1.118034e+00  1.400000e+00  1.000000e+00
      vertex   1.141027e+00  1.400000e+00  9.736825e-01
      vertex  -1.203172e+00  1.400000e+00  8.957548e-01
    endloop
  endfacet
  facet normal -0.000000e+00  1.000000e+00  0.000000e+00
    outer loop
      vertex  -1.203172e+00  1.400000e+00  8.957548e-01
      vertex   1.141027e+00  1.400000e+00  9.736825e-01
      vertex   1.223714e+00  1.400000e+00  8.674819e-01
    endloop
  endfacet
  facet normal  0.000000e+00  1.000000e+00  0.000000e+00
    outer loop
      vertex  -1.203172e+00  1.400000e+00  8.957548e-01
      vertex   1.223714e+00  1.400000e+00  8.674819e-01
      vertex  -1.278623e+00  1.400000e+00  7.842970e-01
    endloop
  endfacet
  facet normal -0.000000e+00  1.000000e+00  0.000000e+00
    outer loop
      vertex  -1.278623e+00  1.400000e+00  7.842970e-01
      vertex   1.223714e+00  1.400000e+00  8.674819e-01
      vertex   1.296548e+00  1.400000e+00  7.542966e-01
    endloop
  endfacet
  facet normal  0.000000e+00  1.000000e+00  0.000000e+00
    outer loop
      vertex  -1.278623e+00  1.400000e+00  7.842970e-01
      vertex   1.296548e+00  1.400000e+00  7.542966e-01
      vertex  -1.343780e+00  1.400000e+00  6.665248e-01
    endloop
  endfacet
  facet normal -0.000000e+00  1.000000e+00  0.000000e+00
    outer loop
      vertex  -1.343780e+00  1.400000e+00  6.665248e-01
      vertex   1.296548e+00  1.400000e+00  7.542966e-01
      vertex   1.358943e+00  1.400000e+00  6.350384e-01
    endloop
  endfacet
  facet normal  0.000000e+00  1.000000e+00  0.000000e+00
    outer loop
      vertex  -1.343780e+00  1.400000e+00  6.665248e-01
      vertex   1.358943e+00  1.400000e+00  6.350384e-01
      vertex  -1.398117e+00  1.400000e+00  5.433860e-01
    endloop
  endfacet
  facet normal -0.000000e+00  1.000000e+00  0.000000e+00
    outer loop
      vertex  -1.398117e+00  1.400000e+00  5.433860e-01
      vertex   1.358943e+00  1.400000e+00  6.350384e-01
      vertex   1.410396e+00  1.400000e+00  5.106672e-01
    endloop
  endfacet
  facet normal  0.000000e+00  1.000000e+00  0.000000e+00
    outer loop
      vertex  -1.398117e+00  1.400000e+00  5.433860e-01
      vertex   1.410396e+00  1.400000e+00  5.106672e-01
      vertex  -1.441197e+00  1.400000e+00  4.158722e-01
    endloop
  endfacet
  facet normal -0.000000e+00  1.000000e+00  0.000000e+00
    outer loop
      vertex  -1.441197e+00  1.400000e+00  4.158722e-01
      vertex   1.410396e+00  1.400000e+00  5.106672e-01
      vertex   1.450494e+00  1.400000e+00  3.821845e-01
    endloop
  endfacet
  facet normal  0.000000e+00  1.000000e+00  0.000000e+00
    outer loop
      vertex  -1.441197e+00  1.400000e+00  4.158722e-01
      vertex   1.450494e+00  1.400000e+00  3.821845e-01
      vertex  -1.472674e+00  1.400000e+00  2.850102e-01
    endloop
  endfacet
  facet normal -0.000000e+00  1.000000e+00  0.000000e+00
    outer loop
      vertex  -1.472674e+00  1.400000e+00  2.850102e-01
      vertex   1.450494e+00  1.400000e+00  3.821845e-01
      vertex   1.478914e+00  1.400000e+00  2.506246e-01
    endloop
  endfacet
  facet normal  0.000000e+00  1.000000e+00  0.000000e+00
    outer loop
      vertex  -1.472674e+00  1.400000e+00  2.850102e-01
      vertex   1.478914e+00  1.400000e+00  2.506246e-01
      vertex  -1.492293e+00  1.400000e+00  1.518533e-01
    endloop
  endfacet
  facet normal -0.000000e+00  1.000000e+00  0.000000e+00
    outer loop
      vertex  -1.492293e+00  1.400000e+00  1.518533e-01
      vertex   1.478914e+00  1.400000e+00  2.506246e-01
      vertex   1.495426e+00  1.400000e+00  1.170467e-01
    endloop
  endfacet
  facet normal  0.000000e+00  1.000000e+00  0.000000e+00
    outer loop
      vertex  -1.492293e+00  1.400000e+00  1.518533e-01
      vertex   1.495426e+00  1.400000e+00  1.170467e-01
      vertex  -1.499898e+00  1.400000e+00  1.747379e-02
    endloop
  endfacet
  facet normal -0.000000e+00  1.000000e+00  0.000000e+00
    outer loop
      vertex  -1.499898e+00  1.400000e+00  1.747379e-02
      vertex   1.495426e+00  1.400000e+00  1.170467e-01
      vertex   1.499898e+00  1.400000e+00 -1.747342e-02
    endloop
  endfacet
  facet normal  0.000000e+00  1.000000e+00  0.000000e+00
    outer loop
      vertex  -1.499898e+00  1.400000e+00  1.747379e-02
      vertex   1.499898e+00  1.400000e+00 -1.747342e-02
      vertex  -1.495426e+00  1.400000e+00 -1.170464e-01
    endloop
  endfacet
  facet normal -0.000000e+00  1.000000e+00  0.000000e+00
    outer loop
      vertex  -1.495426e+00  1.400000e+00 -1.170464e-01
      vertex   1.499898e+00  1.400000e+00 -1.747342e-02
      vertex   1.492293e+00  1.400000e+00 -1.518529e-01
    endloop
  endfacet
  facet normal  0.000000e+00  1.000000e+00  0.000000e+00
    outer loop
      vertex  -1.495426e+00  1.400000e+00 -1.170464e-01
      vertex   1.492293e+00  1.400000e+00 -1.518529e-01
      vertex  -1.478914e+00  1.400000e+00 -2.506242e-01
    endloop
  endfacet
  facet normal -0.000000e+00  1.000000e+00  0.000000e+00
    outer loop
      vertex  -1.478914e+00  1.400000e+00 -2.506242e-01
      vertex   1.492293e+00  1.400000e+00 -1.518529e-01
      vertex   1.472674e+00  1.400000e+00 -2.850098e-01
    endloop
  endfacet
  facet normal  0.000000e+00  1.000000e+00  0.000000e+00
    outer loop
      vertex  -1.478914e+00  1.400000e+00 -2.506242e-01
      vertex   1.472674e+00  1.400000e+00 -2.850098e-01
      vertex  -1.450494e+00  1.400000e+00 -3.821841e-01
    endloop
  endfacet
  facet normal -0.000000e+00  1.000000e+00  0.000000e+00
    outer loop
      vertex  -1.450494e+00  1.400000e+00 -3.821841e-01
      vertex   1.472674e+00  1.400000e+00 -2.850098e-01
      vertex   1.441197e+00  1.400000e+00 -4.158720e-01
    endloop
  endfacet
  facet normal  0.000000e+00  1.000000e+00  0.000000e+00
    outer loop
      vertex  -1.450494e+00  1.400000e+00 -3.821841e-01
      vertex   1.441197e+00  1.400000e+00 -4.158720e-01
      vertex  -1.410396e+00  1.400000e+00 -5.106669e-01
    endloop
  endfacet
  facet normal -0.000000e+00  1.000000e+00  0.000000e+00
    outer loop
      vertex  -1.410396e+00  1.400000e+00 -5.106669e-01
      vertex   1.441197e+00  1.400000e+00 -4.158720e-01
      vertex   1.398117e+00  1.400000e+00 -5.433857e-01
    endloop
  endfacet
  facet normal  0.000000e+00  1.000000e+00  0.000000e+00
    outer loop
      vertex  -1.410396e+00  1.400000e+00 -5.106669e-01
      vertex   1.398117e+00  1.400000e+00 -5.433857e-01
      vertex  -1.358943e+00  1.400000e+00 -6.350381e-01
    endloop
  endfacet
  facet normal -0.000000e+00  1.000000e+00  0.000000e+00
    outer loop
      vertex  -1.358943e+00  1.400000e+00 -6.350381e-01
      vertex   1.398117e+00  1.400000e+00 -5.433857e-01
      vertex   1.343780e+00  1.400000e+00 -6.665245e-01
    endloop
  endfacet
  facet normal  0.000000e+00  1.000000e+00  0.000000e+00
    outer loop
      vertex  -1.358943e+00  1.400000e+00 -6.350381e-01
      vertex   1.343780e+00  1.400000e+00 -6.665245e-01
      vertex  -1.296548e+00  1.400000e+00 -7.542964e-01
    endloop
  endfacet
  facet normal -0.000000e+00  1.000000e+00  0.000000e+00
    outer loop
      vertex  -1.296548e+00  1.400000e+00 -7.542964e-01
      vertex   1.343780e+00  1.400000e+00 -6.665245e-01
      vertex   1.278623e+00  1.400000e+00 -7.842968e-01
    endloop
  endfacet
  facet normal  0.000000e+00  1.000000e+00  0.000000e+00
    outer loop
      vertex  -1.296548e+00  1.400000e+00 -7.542964e-01
      vertex   1.278623e+00  1.400000e+00 -7.842968e-01
      vertex  -1.223714e+00  1.400000e+00 -8.674814e-01
    endloop
  endfacet
  facet normal -0.000000e+00  1.000000e+00  0.000000e+00
    outer loop
      vertex  -1.223714e+00  1.400000e+00 -8.674814e-01
      vertex   1.278623e+00  1.400000e+00 -7.842968e-01
      vertex   1.203172e+00  1.400000e+00 -8.957543e-01
    endloop
  endfacet
  facet normal  0.000000e+00  1.000000e+00  0.000000e+00
    outer loop
      vertex  -1.223714e+00  1.400000e+00 -8.674814e-01
      vertex   1.203172e+00  1.400000e+00 -8.957543e-01
      vertex  -1.141027e+00  1.400000e+00 -9.736819e-01
    endloop
  endfacet
  facet normal -0.000000e+00  1.000000e+00  0.000000e+00
    outer loop
      vertex  -1.141027e+00  1.400000e+00 -9.736819e-01
      vertex   1.203172e+00  1.400000e+00 -8.957543e-01
      vertex   1.118034e+00  1.400000e+00 -9.999997e-01
    endloop
  endfacet
  facet normal  0.000000e+00  1.000000e+00  0.000000e+00
    outer loop
      vertex  -1.141027e+00  1.400000e+00 -9.736819e-01
      vertex   1.118034e+00  1.400000e+00 -9.999997e-01
      vertex  -1.049153e+00  1.400000e+00 -1.072043e+00
    endloop
  endfacet
  facet normal -0.000000e+00  1.000000e+00  0.000000e+00
    outer loop
      vertex  -1.049153e+00  1.400000e+00 -1.072043e+00
      vertex   1.118034e+00  1.400000e+00 -9.999997e-01
      vertex   1.023894e+00  1.400000e+00 -1.096194e+00
    endloop
  endfacet
  facet normal  0.000000e+00  1.000000e+00  0.000000e+00
    outer loop
      vertex  -1.049153e+00  1.400000e+00 -1.072043e+00
      vertex   1.023894e+00  1.400000e+00 -1.096194e+00
      vertex  -9.488325e-01  1.400000e+00 -1.161773e+00
    endloop
  endfacet
  facet normal -0.000000e+00  1.000000e+00  0.000000e+00
    outer loop
      vertex  -9.488325e-01  1.400000e+00 -1.161773e+00
      vertex   1.023894e+00  1.400000e+00 -1.096194e+00
      vertex   9.215097e-01  1.400000e+00 -1.183562e+00
    endloop
  endfacet
  facet normal  0.000000e+00  1.000000e+00  0.000000e+00
    outer loop
      vertex  -9.488325e-01  1.400000e+00 -1.161773e+00
      vertex   9.215097e-01  1.400000e+00 -1.183562e+00
      vertex  -8.408721e-01  1.400000e+00 -1.242148e+00
    endloop
  endfacet
  facet normal -0.000000e+00  1.000000e+00  0.000000e+00
    outer loop
      vertex  -8.408721e-01  1.400000e+00 -1.242148e+00
      vertex   9.215097e-01  1.400000e+00 -1.183562e+00
      vertex   8.117061e-01  1.400000e+00 -1.261401e+00
    endloop
  endfacet
  facet normal  0.000000e+00  1.000000e+00  0.000000e+00
    outer loop
      vertex  -8.408721e-01  1.400000e+00 -1.242148e+00
      vertex   8.117061e-01  1.400000e+00 -1.261401e+00
      vertex  -7.261418e-01  1.400000e+00 -1.312523e+00
    endloop
  endfacet
  facet normal -0.000000e+00  1.000000e+00  0.000000e+00
    outer loop
      vertex  -7.261418e-01  1.400000e+00 -1.312523e+00
      vertex   8.117061e-01  1.400000e+00 -1.261401e+00
      vertex   6.953674e-01  1.400000e+00 -1.329084e+00
    endloop
  endfacet
  facet normal  0.000000e+00  1.000000e+00  0.000000e+00
    outer loop
      vertex  -7.261418e-01  1.400000e+00 -1.312523e+00
      vertex   6.953674e-01  1.400000e+00 -1.329084e+00
      vertex  -6.055649e-01  1.400000e+00 -1.372330e+00
    endloop
  endfacet
  facet normal -0.000000e+00  1.000000e+00  0.000000e+00
    outer loop
      vertex  -6.055649e-01  1.400000e+00 -1.372330e+00
      vertex   6.953674e-01  1.400000e+00 -1.329084e+00
      vertex   5.734299e-01  1.400000e+00 -1.386065e+00
    endloop
  endfacet
  facet normal  0.000000e+00  1.000000e+00  0.000000e+00
    outer loop
      vertex  -6.055649e-01  1.400000e+00 -1.372330e+00
      vertex   5.734299e-01  1.400000e+00 -1.386065e+00
      vertex  -4.801123e-01  1.400000e+00 -1.421088e+00
    endloop
  endfacet
  facet normal -0.000000e+00  1.000000e+00  0.000000e+00
    outer loop
      vertex  -4.801123e-01  1.400000e+00 -1.421088e+00
      vertex   5.734299e-01  1.400000e+00 -1.386065e+00
      vertex   4.468755e-01  1.400000e+00 -1.431887e+00
    endloop
  endfacet
  facet normal  0.000000e+00  1.000000e+00  0.000000e+00
    outer loop
      vertex  -4.801123e-01  1.400000e+00 -1.421088e+00
      vertex   4.468755e-01  1.400000e+00 -1.431887e+00
      vertex  -3.507942e-01  1.400000e+00 -1.458404e+00
    endloop
  endfacet
  facet normal -0.000000e+00  1.000000e+00  0.000000e+00
    outer loop
      vertex  -3.507942e-01  1.400000e+00 -1.458404e+00
      vertex   4.468755e-01  1.400000e+00 -1.431887e+00
      vertex   3.167232e-01  1.400000e+00 -1.466181e+00
    endloop
  endfacet
  facet normal  0.000000e+00  1.000000e+00  0.000000e+00
    outer loop
      vertex  -3.507942e-01  1.400000e+00 -1.458404e+00
      vertex   3.167232e-01  1.400000e+00 -1.466181e+00
      vertex  -2.186516e-01  1.400000e+00 -1.483978e+00
    endloop
  endfacet
  facet normal -0.000000e+00  1.000000e+00  0.000000e+00
    outer loop
      vertex  -2.186516e-01  1.400000e+00 -1.483978e+00
      vertex   3.167232e-01  1.400000e+00 -1.466181e+00
      vertex   1.840207e-01  1.400000e+00 -1.488669e+00
    endloop
  endfacet
  facet normal  0.000000e+00  1.000000e+00  0.000000e+00
    outer loop
      vertex  -2.186516e-01  1.400000e+00 -1.483978e+00
      vertex   1.840207e-01  1.400000e+00 -1.488669e+00
      vertex  -8.474867e-02  1.400000e+00 -1.497604e+00
    endloop
  endfacet
  facet normal -0.000000e+00  1.000000e+00  0.000000e+00
    outer loop
      vertex  -8.474867e-02  1.400000e+00 -1.497604e+00
      vertex   1.840207e-01  1.400000e+00 -1.488669e+00
      vertex   4.983666e-02  1.400000e+00 -1.499172e+00
    endloop
  endfacet
  facet normal  0.000000e+00  1.000000e+00  0.000000e+00
    outer loop
      vertex   1.049153e+00  1.400000e+00  1.072044e+00
      vertex  -1.023894e+00  1.400000e+00  1.096194e+00
      vertex   9.488325e-01  1.400000e+00  1.161773e+00
    endloop
  endfacet
  facet normal  0.000000e+00  1.000000e+00  0.000000e+00
    outer loop
      vertex   9.488325e-01  1.400000e+00  1.161773e+00
      vertex  -1.023894e+00  1.400000e+00  1.096194e+00
      vertex  -9.215097e-01  1.400000e+00  1.183563e+00
    endloop
  endfacet
  facet normal  0.000000e+00  1.000000e+00  0.000000e+00
    outer loop
      vertex   9.488325e-01  1.400000e+00  1.161773e+00
      vertex  -9.215097e-01  1.400000e+00  1.183563e+00
      vertex   8.408721e-01  1.400000e+00  1.242149e+00
    endloop
  endfacet
  facet normal  0.000000e+00  1.000000e+00  0.000000e+00
    outer loop
      vertex   8.408721e-01  1.400000e+00  1.242149e+00
      vertex  -9.215097e-01  1.400000e+00  1.183563e+00
      vertex  -8.117061e-01  1.400000e+00  1.261401e+00
    endloop
  endfacet
  facet normal  0.000000e+00  1.000000e+00  0.000000e+00
    outer loop
      vertex   8.408721e-01  1.400000e+00  1.242149e+00
      vertex  -8.117061e-01  1.400000e+00  1.261401e+00
      vertex   7.261418e-01  1.400000e+00  1.312524e+00
    endloop
  endfacet
  facet normal  0.000000e+00  1.000000e+00  0.000000e+00
    outer loop
      vertex   7.261418e-01  1.400000e+00  1.312524e+00
      vertex  -8.117061e-01  1.400000e+00  1.261401e+00
      vertex  -6.953674e-01  1.400000e+00  1.329084e+00
    endloop
  endfacet
  facet normal  0.000000e+00  1.000000e+00  0.000000e+00
    outer loop
      vertex   7.261418e-01  1.400000e+00  1.312524e+00
      vertex  -6.953674e-01  1.400000e+00  1.329084e+00
      vertex   6.055649e-01  1.400000e+00  1.372331e+00
    endloop
  endfacet
  facet normal  0.000000e+00  1.000000e+00  0.000000e+00
    outer loop
      vertex   6.055649e-01  1.400000e+00  1.372331e+00
      vertex  -6.953674e-01  1.400000e+00  1.329084e+00
      vertex  -5.734299e-01  1.400000e+00  1.386066e+00
    endloop
  endfacet
  facet normal  0.000000e+00  1.000000e+00  0.000000e+00
    outer loop
      vertex   6.055649e-01  1.400000e+00  1.372331e+00
      vertex  -5.734299e-01  1.400000e+00  1.386066e+00
      vertex   4.801123e-01  1.400000e+00  1.421089e+00
    endloop
  endfacet
  facet normal  0.000000e+00  1.000000e+00  0.000000e+00
    outer loop
      vertex   4.801123e-01  1.400000e+00  1.421089e+00
      vertex  -5.734299e-01  1.400000e+00  1.386066e+00
      vertex  -4.468755e-01  1.400000e+00  1.431888e+00
    endloop
  endfacet
  facet normal  0.000000e+00  1.000000e+00  0.000000e+00
    outer loop
      vertex   4.801123e-01  1.400000e+00  1.421089e+00
      vertex  -4.468755e-01  1.400000e+00  1.431888e+00
      vertex   3.507942e-01  1.400000e+00  1.458405e+00
    endloop
  endfacet
  facet normal  0.000000e+00  1.000000e+00  0.000000e+00
    outer loop
      vertex   3.507942e-01  1.400000e+00  1.458405e+00
      vertex  -4.468755e-01  1.400000e+00  1.431888e+00
      vertex  -3.167232e-01  1.400000e+00  1.466181e+00
    endloop
  endfacet
  facet normal  0.000000e+00  1.000000e+00  0.000000e+00
    outer loop
      vertex   3.507942e-01  1.400000e+00  1.458405e+00
      vertex  -3.167232e-01  1.400000e+00  1.466181e+00
      vertex   2.186516e-01  1.400000e+00  1.483979e+00
    endloop
  endfacet
  facet normal  0.000000e+00  1.000000e+00  0.000000e+00
    outer loop
      vertex   2.186516e-01  1.400000e+00  1.483979e+00
      vertex  -3.167232e-01  1.400000e+00  1.466181e+00
      vertex  -1.840207e-01  1.400000e+00  1.488670e+00
    endloop
  endfacet
  facet normal  0.000000e+00  1.000000e+00  0.000000e+00
    outer loop
      vertex   2.186516e-01  1.400000e+00  1.483979e+00
      vertex  -1.840207e-01  1.400000e+00  1.488670e+00
      vertex   8.474867e-02  1.400000e+00  1.497604e+00
    endloop
  endfacet
  facet normal  0.000000e+00  1.000000e+00  0.000000e+00
    outer loop
      vertex   8.474867e-02  1.400000e+00  1.497604e+00
      vertex  -1.840207e-01  1.400000e+00  1.488670e+00
      vertex  -4.983666e-02  1.400000e+00  1.499172e+00
    endloop
  endfacet
  facet normal  0.000000e+00  0.000000e+00  1.000000e+00
    outer loop
      vertex  -7.499998e+00 -1.311342e-07  1.000000e+00
      vertex  -1.118034e+00 -1.311342e-07  1.000000e+00
      vertex  -7.499998e+00  4.999999e-01  1.000000e+00
    endloop
  endfacet
  facet normal -0.000000e+00  0.000000e+00  1.000000e+00
    outer loop
      vertex  -7.499998e+00  4.999999e-01  1.000000e+00
      vertex  -1.118034e+00 -1.311342e-07  1.000000e+00
      vertex  -1.118034e+00  4.999999e-01  1.000000e+00
    endloop
  endfacet
  facet normal -1.000000e+00  0.000000e+00  0.000000e+00
    outer loop
      vertex  -7.499998e+00  1.311342e-07 -1.000000e+00
      vertex  -7.499998e+00 -1.311342e-07  1.000000e+00
      vertex  -7.499998e+00  5.000001e-01 -1.000000e+00
    endloop
  endfacet
  facet normal -1.000000e+00  0.000000e+00  0.000000e+00
    outer loop
      vertex  -7.499998e+00  5.000001e-01 -1.000000e+00
      vertex  -7.499998e+00 -1.311342e-07  1.000000e+00
      vertex  -7.499998e+00  4.999999e-01  1.000000e+00
    endloop
  endfacet
  facet normal  0.000000e+00  0.000000e+00 -1.000000e+00
    outer loop
      vertex  -1.118034e+00  1.311342e-07 -1.000000e+00
      vertex  -7.499998e+00  1.311342e-07 -1.000000e+00
      vertex  -1.118034e+00  5.000001e-01 -1.000000e+00
    endloop
  endfacet
  facet normal -0.000000e+00  0.000000e+00 -1.000000e+00
    outer loop
      vertex  -1.118034e+00  5.000001e-01 -1.000000e+00
      vertex  -7.499998e+00  1.311342e-07 -1.000000e+00
      vertex  -7.499998e+00  5.000001e-01 -1.000000e+00
    endloop
  endfacet
  facet normal -7.745157e-01  2.793818e-04  6.325547e-01
    outer loop
      vertex  -1.203172e+00  1.400000e+00  8.957548e-01
      vertex  -1.199661e+00  4.999999e-01  9.004514e-01
      vertex  -1.118034e+00  1.400000e+00  1.000000e+00
    endloop
  endfacet
  facet normal -7.732787e-01  0.000000e+00  6.340662e-01
    outer loop
      vertex  -1.118034e+00  1.400000e+00  1.000000e+00
      vertex  -1.199661e+00  4.999999e-01  9.004514e-01
      vertex  -1.118034e+00  4.999999e-01  1.000000e+00
    endloop
  endfacet
  facet normal -7.146963e-01  0.000000e+00  6.994349e-01
    outer loop
      vertex  -1.118034e+00  1.400000e+00  1.000000e+00
      vertex  -1.118034e+00  4.999999e-01  1.000000e+00
      vertex  -1.023894e+00  1.400000e+00  1.096194e+00
    endloop
  endfacet
  facet normal -7.147906e-01  2.015560e-05  6.993386e-01
    outer loop
      vertex  -1.023894e+00  1.400000e+00  1.096194e+00
      vertex  -1.118034e+00  4.999999e-01  1.000000e+00
      vertex  -1.024366e+00 -1.436905e-07  1.095752e+00
    endloop
  endfacet
  facet normal -6.496179e-01 -2.104978e-05  7.602608e-01
    outer loop
      vertex  -1.023894e+00  1.400000e+00  1.096194e+00
      vertex  -1.024366e+00 -1.436905e-07  1.095752e+00
      vertex  -9.225306e-01 -1.551011e-07  1.182767e+00
    endloop
  endfacet
  facet normal -8.247973e-01 -2.670670e-04  5.654284e-01
    outer loop
      vertex  -1.199661e+00  4.999999e-01  9.004514e-01
      vertex  -1.203172e+00  1.400000e+00  8.957548e-01
      vertex  -1.272452e+00  4.999999e-01  7.942703e-01
    endloop
  endfacet
  facet normal -8.281006e-01  5.340200e-04  5.605792e-01
    outer loop
      vertex  -1.272452e+00  4.999999e-01  7.942703e-01
      vertex  -1.203172e+00  1.400000e+00  8.957548e-01
      vertex  -1.278623e+00  1.400000e+00  7.842970e-01
    endloop
  endfacet
  facet normal -8.702432e-01 -5.079990e-04  4.926220e-01
    outer loop
      vertex  -1.272452e+00  4.999999e-01  7.942703e-01
      vertex  -1.278623e+00  1.400000e+00  7.842970e-01
      vertex  -1.335870e+00  4.999999e-01  6.822389e-01
    endloop
  endfacet
  facet normal -8.750134e-01  7.620054e-04  4.840982e-01
    outer loop
      vertex  -1.335870e+00  4.999999e-01  6.822389e-01
      vertex  -1.278623e+00  1.400000e+00  7.842970e-01
      vertex  -1.343780e+00  1.400000e+00  6.665248e-01
    endloop
  endfacet
  facet normal -9.092764e-01 -7.247765e-04  4.161922e-01
    outer loop
      vertex  -1.335870e+00  4.999999e-01  6.822389e-01
      vertex  -1.343780e+00  1.400000e+00  6.665248e-01
      vertex  -1.389449e+00  4.999999e-01  5.651822e-01
    endloop
  endfacet
  facet normal -9.148874e-01  9.656870e-04  4.037081e-01
    outer loop
      vertex  -1.389449e+00  4.999999e-01  5.651822e-01
      vertex  -1.343780e+00  1.400000e+00  6.665248e-01
      vertex  -1.398117e+00  1.400000e+00  5.433860e-01
    endloop
  endfacet
  facet normal -9.416153e-01 -9.147918e-04  3.366894e-01
    outer loop
      vertex  -1.389449e+00  4.999999e-01  5.651822e-01
      vertex  -1.398117e+00  1.400000e+00  5.433860e-01
      vertex  -1.432793e+00  5.000000e-01  4.439625e-01
    endloop
  endfacet
  facet normal -9.473922e-01  1.143389e-03  3.200731e-01
    outer loop
      vertex  -1.432793e+00  5.000000e-01  4.439625e-01
      vertex  -1.398117e+00  1.400000e+00  5.433860e-01
      vertex  -1.441197e+00  1.400000e+00  4.158722e-01
    endloop
  endfacet
  facet normal -9.670155e-01 -1.079764e-03  2.547152e-01
    outer loop
      vertex  -1.432793e+00  5.000000e-01  4.439625e-01
      vertex  -1.441197e+00  1.400000e+00  4.158722e-01
      vertex  -1.465584e+00  5.000000e-01  3.194728e-01
    endloop
  endfacet
  facet normal -9.722682e-01  1.295830e-03  2.338651e-01
    outer loop
      vertex  -1.465584e+00  5.000000e-01  3.194728e-01
      vertex  -1.441197e+00  1.400000e+00  4.158722e-01
      vertex  -1.472674e+00  1.400000e+00  2.850102e-01
    endloop
  endfacet
  facet normal -9.852944e-01 -1.219317e-03  1.708613e-01
    outer loop
      vertex  -1.465584e+00  5.000000e-01  3.194728e-01
      vertex  -1.472674e+00  1.400000e+00  2.850102e-01
      vertex  -1.487580e+00  5.000000e-01  1.926298e-01
    endloop
  endfacet
  facet normal -9.893184e-01  1.423478e-03  1.457636e-01
    outer loop
      vertex  -1.487580e+00  5.000000e-01  1.926298e-01
      vertex  -1.472674e+00  1.400000e+00  2.850102e-01
      vertex  -1.492293e+00  1.400000e+00  1.518533e-01
    endloop
  endfacet
  facet normal -9.963165e-01 -1.332626e-03  8.574096e-02
    outer loop
      vertex  -1.487580e+00  5.000000e-01  1.926298e-01
      vertex  -1.492293e+00  1.400000e+00  1.518533e-01
      vertex  -1.498618e+00  5.000000e-01  6.436803e-02
    endloop
  endfacet
  facet normal -9.984013e-01  1.524161e-03  5.650265e-02
    outer loop
      vertex  -1.498618e+00  5.000000e-01  6.436803e-02
      vertex  -1.492293e+00  1.400000e+00  1.518533e-01
      vertex  -1.499898e+00  1.400000e+00  1.747379e-02
    endloop
  endfacet
  facet normal -9.999990e-01 -1.422165e-03 -0.000000e+00
    outer loop
      vertex  -1.498618e+00  5.000000e-01  6.436803e-02
      vertex  -1.499898e+00  1.400000e+00  1.747379e-02
      vertex  -1.498618e+00  5.000000e-01 -6.436789e-02
    endloop
  endfacet
  facet normal -9.994466e-01  1.599935e-03 -3.322493e-02
    outer loop
      vertex  -1.498618e+00  5.000000e-01 -6.436789e-02
      vertex  -1.499898e+00  1.400000e+00  1.747379e-02
      vertex  -1.495426e+00  1.400000e+00 -1.170464e-01
    endloop
  endfacet
  facet normal -9.963163e-01 -1.485017e-03 -8.574092e-02
    outer loop
      vertex  -1.498618e+00  5.000000e-01 -6.436789e-02
      vertex  -1.495426e+00  1.400000e+00 -1.170464e-01
      vertex  -1.487580e+00  5.000000e-01 -1.926297e-01
    endloop
  endfacet
  facet normal -9.924449e-01  1.650906e-03 -1.226797e-01
    outer loop
      vertex  -1.487580e+00  5.000000e-01 -1.926297e-01
      vertex  -1.495426e+00  1.400000e+00 -1.170464e-01
      vertex  -1.478914e+00  1.400000e+00 -2.506242e-01
    endloop
  endfacet
  facet normal -9.852939e-01 -1.522693e-03 -1.708613e-01
    outer loop
      vertex  -1.487580e+00  5.000000e-01 -1.926297e-01
      vertex  -1.478914e+00  1.400000e+00 -2.506242e-01
      vertex  -1.465584e+00  5.000000e-01 -3.194726e-01
    endloop
  endfacet
  facet normal -9.774518e-01  1.675633e-03 -2.111521e-01
    outer loop
      vertex  -1.465584e+00  5.000000e-01 -3.194726e-01
      vertex  -1.478914e+00  1.400000e+00 -2.506242e-01
      vertex  -1.450494e+00  1.400000e+00 -3.821841e-01
    endloop
  endfacet
  facet normal -9.670150e-01 -1.534779e-03 -2.547147e-01
    outer loop
      vertex  -1.465584e+00  5.000000e-01 -3.194726e-01
      vertex  -1.450494e+00  1.400000e+00 -3.821841e-01
      vertex  -1.432793e+00  5.000000e-01 -4.439625e-01
    endloop
  endfacet
  facet normal -9.545903e-01  1.675118e-03 -2.979172e-01
    outer loop
      vertex  -1.432793e+00  5.000000e-01 -4.439625e-01
      vertex  -1.450494e+00  1.400000e+00 -3.821841e-01
      vertex  -1.410396e+00  1.400000e+00 -5.106669e-01
    endloop
  endfacet
  facet normal -9.416146e-01 -1.521414e-03 -3.366891e-01
    outer loop
      vertex  -1.432793e+00  5.000000e-01 -4.439625e-01
      vertex  -1.410396e+00  1.400000e+00 -5.106669e-01
      vertex  -1.389449e+00  5.000001e-01 -5.651822e-01
    endloop
  endfacet
  facet normal -9.240443e-01  1.649195e-03 -3.822819e-01
    outer loop
      vertex  -1.389449e+00  5.000001e-01 -5.651822e-01
      vertex  -1.410396e+00  1.400000e+00 -5.106669e-01
      vertex  -1.358943e+00  1.400000e+00 -6.350381e-01
    endloop
  endfacet
  facet normal -9.092757e-01 -1.483407e-03 -4.161918e-01
    outer loop
      vertex  -1.389449e+00  5.000001e-01 -5.651822e-01
      vertex  -1.358943e+00  1.400000e+00 -6.350381e-01
      vertex  -1.335870e+00  5.000001e-01 -6.822389e-01
    endloop
  endfacet
  facet normal -8.860553e-01  1.597006e-03 -4.635768e-01
    outer loop
      vertex  -1.335870e+00  5.000001e-01 -6.822389e-01
      vertex  -1.358943e+00  1.400000e+00 -6.350381e-01
      vertex  -1.296548e+00  1.400000e+00 -7.542964e-01
    endloop
  endfacet
  facet normal -8.702425e-01 -1.419320e-03 -4.926217e-01
    outer loop
      vertex  -1.335870e+00  5.000001e-01 -6.822389e-01
      vertex  -1.296548e+00  1.400000e+00 -7.542964e-01
      vertex  -1.272452e+00  5.000001e-01 -7.942703e-01
    endloop
  endfacet
  facet normal -8.409331e-01  1.520212e-03 -5.411369e-01
    outer loop
      vertex  -1.272452e+00  5.000001e-01 -7.942703e-01
      vertex  -1.296548e+00  1.400000e+00 -7.542964e-01
      vertex  -1.223714e+00  1.400000e+00 -8.674814e-01
    endloop
  endfacet
  facet normal -8.247966e-01 -1.329610e-03 -5.654280e-01
    outer loop
      vertex  -1.272452e+00  5.000001e-01 -7.942703e-01
      vertex  -1.223714e+00  1.400000e+00 -8.674814e-01
      vertex  -1.199661e+00  5.000001e-01 -9.004514e-01
    endloop
  endfacet
  facet normal -7.890396e-01  1.417852e-03 -6.143407e-01
    outer loop
      vertex  -1.199661e+00  5.000001e-01 -9.004514e-01
      vertex  -1.223714e+00  1.400000e+00 -8.674814e-01
      vertex  -1.141027e+00  1.400000e+00 -9.736819e-01
    endloop
  endfacet
  facet normal -7.732782e-01 -1.213967e-03 -6.340657e-01
    outer loop
      vertex  -1.199661e+00  5.000001e-01 -9.004514e-01
      vertex  -1.141027e+00  1.400000e+00 -9.736819e-01
      vertex  -1.118034e+00  5.000001e-01 -1.000000e+00
    endloop
  endfacet
  facet normal -7.307946e-01  1.290534e-03 -6.825963e-01
    outer loop
      vertex  -1.118034e+00  5.000001e-01 -1.000000e+00
      vertex  -1.141027e+00  1.400000e+00 -9.736819e-01
      vertex  -1.049153e+00  1.400000e+00 -1.072043e+00
    endloop
  endfacet
  facet normal -7.227914e-01 -0.000000e+00 -6.910663e-01
    outer loop
      vertex  -1.118034e+00  5.000001e-01 -1.000000e+00
      vertex  -1.049153e+00  1.400000e+00 -1.072043e+00
      vertex  -1.118034e+00  1.311342e-07 -1.000000e+00
    endloop
  endfacet
  facet normal -7.148429e-01 -8.139753e-04 -6.992846e-01
    outer loop
      vertex  -1.118034e+00  1.311342e-07 -1.000000e+00
      vertex  -1.049153e+00  1.400000e+00 -1.072043e+00
      vertex  -1.024366e+00  1.436905e-07 -1.095752e+00
    endloop
  endfacet
  facet normal -6.666686e-01  8.191353e-04 -7.453538e-01
    outer loop
      vertex  -1.024366e+00  1.436905e-07 -1.095752e+00
      vertex  -1.049153e+00  1.400000e+00 -1.072043e+00
      vertex  -9.488325e-01  1.400000e+00 -1.161773e+00
    endloop
  endfacet
  facet normal -6.496177e-01 -8.037760e-04 -7.602606e-01
    outer loop
      vertex  -1.024366e+00  1.436905e-07 -1.095752e+00
      vertex  -9.488325e-01  1.400000e+00 -1.161773e+00
      vertex  -9.225306e-01  1.551011e-07 -1.182767e+00
    endloop
  endfacet
  facet normal -5.971653e-01  8.093269e-04 -8.021177e-01
    outer loop
      vertex  -9.225306e-01  1.551011e-07 -1.182767e+00
      vertex  -9.488325e-01  1.400000e+00 -1.161773e+00
      vertex  -8.408721e-01  1.400000e+00 -1.242148e+00
    endloop
  endfacet
  facet normal -5.791968e-01 -7.930838e-04 -8.151873e-01
    outer loop
      vertex  -9.225306e-01  1.551011e-07 -1.182767e+00
      vertex  -8.408721e-01  1.400000e+00 -1.242148e+00
      vertex  -8.133382e-01  1.652749e-07 -1.260349e+00
    endloop
  endfacet
  facet normal -5.228665e-01  7.987428e-04 -8.524143e-01
    outer loop
      vertex  -8.133382e-01  1.652749e-07 -1.260349e+00
      vertex  -8.408721e-01  1.400000e+00 -1.242148e+00
      vertex  -7.261418e-01  1.400000e+00 -1.312523e+00
    endloop
  endfacet
  facet normal -5.041726e-01 -7.825241e-04 -8.636025e-01
    outer loop
      vertex  -8.133382e-01  1.652749e-07 -1.260349e+00
      vertex  -7.261418e-01  1.400000e+00 -1.312523e+00
      vertex  -6.976602e-01  1.741307e-07 -1.327882e+00
    endloop
  endfacet
  facet normal -4.443498e-01  7.883214e-04 -8.958530e-01
    outer loop
      vertex  -6.976602e-01  1.741307e-07 -1.327882e+00
      vertex  -7.261418e-01  1.400000e+00 -1.312523e+00
      vertex  -6.055649e-01  1.400000e+00 -1.372330e+00
    endloop
  endfacet
  facet normal -4.251136e-01 -7.719206e-04 -9.051397e-01
    outer loop
      vertex  -6.976602e-01  1.741307e-07 -1.327882e+00
      vertex  -6.055649e-01  1.400000e+00 -1.372330e+00
      vertex  -5.764187e-01  1.815979e-07 -1.384825e+00
    endloop
  endfacet
  facet normal -3.622585e-01  7.770641e-04 -9.320774e-01
    outer loop
      vertex  -5.764187e-01  1.815979e-07 -1.384825e+00
      vertex  -6.055649e-01  1.400000e+00 -1.372330e+00
      vertex  -4.801123e-01  1.400000e+00 -1.421088e+00
    endloop
  endfacet
  facet normal -3.426764e-01 -7.610410e-04 -9.394532e-01
    outer loop
      vertex  -5.764187e-01  1.815979e-07 -1.384825e+00
      vertex  -4.801123e-01  1.400000e+00 -1.421088e+00
      vertex  -4.505808e-01  1.876170e-07 -1.430726e+00
    endloop
  endfacet
  facet normal -2.772466e-01  7.660752e-04 -9.607985e-01
    outer loop
      vertex  -4.505808e-01  1.876170e-07 -1.430726e+00
      vertex  -4.801123e-01  1.400000e+00 -1.421088e+00
      vertex  -3.507942e-01  1.400000e+00 -1.458404e+00
    endloop
  endfacet
  facet normal -2.575030e-01 -7.494832e-04 -9.662772e-01
    outer loop
      vertex  -4.505808e-01  1.876170e-07 -1.430726e+00
      vertex  -3.507942e-01  1.400000e+00 -1.458404e+00
      vertex  -3.211499e-01  1.921401e-07 -1.465218e+00
    endloop
  endfacet
  facet normal -1.900083e-01  7.551492e-04 -9.817823e-01
    outer loop
      vertex  -3.211499e-01  1.921401e-07 -1.465218e+00
      vertex  -3.507942e-01  1.400000e+00 -1.458404e+00
      vertex  -2.186516e-01  1.400000e+00 -1.483978e+00
    endloop
  endfacet
  facet normal -1.702686e-01 -7.384970e-04 -9.853974e-01
    outer loop
      vertex  -3.211499e-01  1.921401e-07 -1.465218e+00
      vertex  -2.186516e-01  1.400000e+00 -1.483978e+00
      vertex  -1.891580e-01  1.951310e-07 -1.488025e+00
    endloop
  endfacet
  facet normal -1.012373e-01  7.431363e-04 -9.948620e-01
    outer loop
      vertex  -1.891580e-01  1.951310e-07 -1.488025e+00
      vertex  -2.186516e-01  1.400000e+00 -1.483978e+00
      vertex  -8.474867e-02  1.400000e+00 -1.497604e+00
    endloop
  endfacet
  facet normal -8.168828e-02 -7.270763e-04 -9.966576e-01
    outer loop
      vertex  -1.891580e-01  1.951310e-07 -1.488025e+00
      vertex  -8.474867e-02  1.400000e+00 -1.497604e+00
      vertex  -5.565771e-02  1.965658e-07 -1.498967e+00
    endloop
  endfacet
  facet normal -1.165039e-02  7.314465e-04 -9.999318e-01
    outer loop
      vertex  -5.565771e-02  1.965658e-07 -1.498967e+00
      vertex  -8.474867e-02  1.400000e+00 -1.497604e+00
      vertex   4.983666e-02  1.400000e+00 -1.499172e+00
    endloop
  endfacet
  facet normal  7.547812e-03 -7.152043e-04 -9.999712e-01
    outer loop
      vertex  -5.565771e-02  1.965658e-07 -1.498967e+00
      vertex   4.983666e-02  1.400000e+00 -1.499172e+00
      vertex   7.828639e-02  1.964332e-07 -1.497956e+00
    endloop
  endfacet
  facet normal  7.803479e-02  7.198026e-04 -9.969504e-01
    outer loop
      vertex   7.828639e-02  1.964332e-07 -1.497956e+00
      vertex   4.983666e-02  1.400000e+00 -1.499172e+00
      vertex   1.840207e-01  1.400000e+00 -1.488669e+00
    endloop
  endfacet
  facet normal  9.673141e-02 -7.031306e-04 -9.953102e-01
    outer loop
      vertex   7.828639e-02  1.964332e-07 -1.497956e+00
      vertex   1.840207e-01  1.400000e+00 -1.488669e+00
      vertex   2.116062e-01  1.947341e-07 -1.484999e+00
    endloop
  endfacet
  facet normal  1.670797e-01  7.075612e-04 -9.859432e-01
    outer loop
      vertex   2.116062e-01  1.947341e-07 -1.484999e+00
      vertex   1.840207e-01  1.400000e+00 -1.488669e+00
      vertex   3.167232e-01  1.400000e+00 -1.466181e+00
    endloop
  endfacet
  facet normal  1.851318e-01 -6.912689e-04 -9.827134e-01
    outer loop
      vertex   2.116062e-01  1.947341e-07 -1.484999e+00
      vertex   3.167232e-01  1.400000e+00 -1.466181e+00
      vertex   3.432387e-01  1.914822e-07 -1.460201e+00
    endloop
  endfacet
  facet normal  2.547949e-01  6.952661e-04 -9.669949e-01
    outer loop
      vertex   3.432387e-01  1.914822e-07 -1.460201e+00
      vertex   3.167232e-01  1.400000e+00 -1.466181e+00
      vertex   4.468755e-01  1.400000e+00 -1.431887e+00
    endloop
  endfacet
  facet normal  2.720614e-01 -6.782728e-04 -9.622797e-01
    outer loop
      vertex   3.432387e-01  1.914822e-07 -1.460201e+00
      vertex   4.468755e-01  1.400000e+00 -1.431887e+00
      vertex   4.721340e-01  1.867034e-07 -1.423759e+00
    endloop
  endfacet
  facet normal  3.404448e-01  6.833055e-04 -9.402643e-01
    outer loop
      vertex   4.721340e-01  1.867034e-07 -1.423759e+00
      vertex   4.468755e-01  1.400000e+00 -1.431887e+00
      vertex   5.734299e-01  1.400000e+00 -1.386065e+00
    endloop
  endfacet
  facet normal  3.568242e-01 -6.658612e-04 -9.341713e-01
    outer loop
      vertex   4.721340e-01  1.867034e-07 -1.423759e+00
      vertex   5.734299e-01  1.400000e+00 -1.386065e+00
      vertex   5.972644e-01  1.804358e-07 -1.375963e+00
    endloop
  endfacet
  facet normal  4.233540e-01  6.703188e-04 -9.059641e-01
    outer loop
      vertex   5.972644e-01  1.804358e-07 -1.375963e+00
      vertex   5.734299e-01  1.400000e+00 -1.386065e+00
      vertex   6.953674e-01  1.400000e+00 -1.329084e+00
    endloop
  endfacet
  facet normal  4.387372e-01 -6.537179e-04 -8.986151e-01
    outer loop
      vertex   5.972644e-01  1.804358e-07 -1.375963e+00
      vertex   6.953674e-01  1.400000e+00 -1.329084e+00
      vertex   7.176322e-01  1.727293e-07 -1.317195e+00
    endloop
  endfacet
  facet normal  5.028659e-01  6.570124e-04 -8.643642e-01
    outer loop
      vertex   7.176322e-01  1.727293e-07 -1.317195e+00
      vertex   6.953674e-01  1.400000e+00 -1.329084e+00
      vertex   8.117061e-01  1.400000e+00 -1.261401e+00
    endloop
  endfacet
  facet normal  5.171499e-01 -6.403463e-04 -8.558946e-01
    outer loop
      vertex   7.176322e-01  1.727293e-07 -1.317195e+00
      vertex   8.117061e-01  1.400000e+00 -1.261401e+00
      vertex   8.322772e-01  1.636455e-07 -1.247924e+00
    endloop
  endfacet
  facet normal  5.783212e-01  6.443682e-04 -8.158089e-01
    outer loop
      vertex   8.322772e-01  1.636455e-07 -1.247924e+00
      vertex   8.117061e-01  1.400000e+00 -1.261401e+00
      vertex   9.215097e-01  1.400000e+00 -1.183562e+00
    endloop
  endfacet
  facet normal  5.914455e-01 -6.272398e-04 -8.063447e-01
    outer loop
      vertex   8.322772e-01  1.636455e-07 -1.247924e+00
      vertex   9.215097e-01  1.400000e+00 -1.183562e+00
      vertex   9.402856e-01  1.532567e-07 -1.168701e+00
    endloop
  endfacet
  facet normal  6.491191e-01  6.309070e-04 -7.606865e-01
    outer loop
      vertex   9.402856e-01  1.532567e-07 -1.168701e+00
      vertex   9.215097e-01  1.400000e+00 -1.183562e+00
      vertex   1.023894e+00  1.400000e+00 -1.096194e+00
    endloop
  endfacet
  facet normal  6.610182e-01 -6.140256e-04 -7.503696e-01
    outer loop
      vertex   9.402856e-01  1.532567e-07 -1.168701e+00
      vertex   1.023894e+00  1.400000e+00 -1.096194e+00
      vertex   1.040796e+00  1.416457e-07 -1.080159e+00
    endloop
  endfacet
  facet normal  7.146972e-01  6.174286e-04 -6.994337e-01
    outer loop
      vertex   1.040796e+00  1.416457e-07 -1.080159e+00
      vertex   1.023894e+00  1.400000e+00 -1.096194e+00
      vertex   1.118034e+00  1.400000e+00 -9.999997e-01
    endloop
  endfacet
  facet normal  7.253240e-01 -6.001808e-04 -6.884074e-01
    outer loop
      vertex   1.040796e+00  1.416457e-07 -1.080159e+00
      vertex   1.118034e+00  1.400000e+00 -9.999997e-01
      vertex   1.133007e+00  1.289053e-07 -9.830033e-01
    endloop
  endfacet
  facet normal  7.745163e-01  6.040080e-04 -6.325537e-01
    outer loop
      vertex   1.133007e+00  1.289053e-07 -9.830033e-01
      vertex   1.118034e+00  1.400000e+00 -9.999997e-01
      vertex   1.203172e+00  1.400000e+00 -8.957543e-01
    endloop
  endfacet
  facet normal  7.838440e-01 -5.861582e-04 -6.209576e-01
    outer loop
      vertex   1.133007e+00  1.289053e-07 -9.830033e-01
      vertex   1.203172e+00  1.400000e+00 -8.957543e-01
      vertex   1.216183e+00  1.151369e-07 -8.780088e-01
    endloop
  endfacet
  facet normal  8.280998e-01  5.904370e-04 -5.605804e-01
    outer loop
      vertex   1.216183e+00  1.151369e-07 -8.780088e-01
      vertex   1.203172e+00  1.400000e+00 -8.957543e-01
      vertex   1.278623e+00  1.400000e+00 -7.842968e-01
    endloop
  endfacet
  facet normal  8.361176e-01 -5.724366e-04 -5.485500e-01
    outer loop
      vertex   1.216183e+00  1.151369e-07 -8.780088e-01
      vertex   1.278623e+00  1.400000e+00 -7.842968e-01
      vertex   1.289660e+00  1.004505e-07 -7.660129e-01
    endloop
  endfacet
  facet normal  8.750137e-01  5.759427e-04 -4.840979e-01
    outer loop
      vertex   1.289660e+00  1.004505e-07 -7.660129e-01
      vertex   1.278623e+00  1.400000e+00 -7.842968e-01
      vertex   1.343780e+00  1.400000e+00 -6.665245e-01
    endloop
  endfacet
  facet normal  8.817163e-01 -5.585256e-04 -4.717798e-01
    outer loop
      vertex   1.289660e+00  1.004505e-07 -7.660129e-01
      vertex   1.343780e+00  1.400000e+00 -6.665245e-01
      vertex   1.352854e+00  8.496296e-08 -6.479086e-01
    endloop
  endfacet
  facet normal  9.148877e-01  5.616238e-04 -4.037082e-01
    outer loop
      vertex   1.352854e+00  8.496296e-08 -6.479086e-01
      vertex   1.343780e+00  1.400000e+00 -6.665245e-01
      vertex   1.398117e+00  1.400000e+00 -5.433857e-01
    endloop
  endfacet
  facet normal  9.202881e-01 -5.437810e-04 -3.912409e-01
    outer loop
      vertex   1.352854e+00  8.496296e-08 -6.479086e-01
      vertex   1.398117e+00  1.400000e+00 -5.433857e-01
      vertex   1.405260e+00  6.879795e-08 -5.246378e-01
    endloop
  endfacet
  facet normal  9.473925e-01  5.475346e-04 -3.200735e-01
    outer loop
      vertex   1.405260e+00  6.879795e-08 -5.246378e-01
      vertex   1.398117e+00  1.400000e+00 -5.433857e-01
      vertex   1.441197e+00  1.400000e+00 -4.158720e-01
    endloop
  endfacet
  facet normal  9.515235e-01 -5.294714e-04 -3.075756e-01
    outer loop
      vertex   1.405260e+00  6.879795e-08 -5.246378e-01
      vertex   1.441197e+00  1.400000e+00 -4.158720e-01
      vertex   1.446459e+00  5.208431e-08 -3.971833e-01
    endloop
  endfacet
  facet normal  9.722689e-01  5.324727e-04 -2.338650e-01
    outer loop
      vertex   1.446459e+00  5.208431e-08 -3.971833e-01
      vertex   1.441197e+00  1.400000e+00 -4.158720e-01
      vertex   1.472674e+00  1.400000e+00 -2.850098e-01
    endloop
  endfacet
  facet normal  9.751662e-01 -5.146238e-04 -2.214736e-01
    outer loop
      vertex   1.446459e+00  5.208431e-08 -3.971833e-01
      vertex   1.472674e+00  1.400000e+00 -2.850098e-01
      vertex   1.476125e+00  3.495534e-08 -2.665617e-01
    endloop
  endfacet
  facet normal  9.893193e-01  5.179067e-04 -1.457637e-01
    outer loop
      vertex   1.476125e+00  3.495534e-08 -2.665617e-01
      vertex   1.472674e+00  1.400000e+00 -2.850098e-01
      vertex   1.492293e+00  1.400000e+00 -1.518529e-01
    endloop
  endfacet
  facet normal  9.910366e-01 -4.994246e-04 -1.335894e-01
    outer loop
      vertex   1.476125e+00  3.495534e-08 -2.665617e-01
      vertex   1.492293e+00  1.400000e+00 -1.518529e-01
      vertex   1.494019e+00  1.754764e-08 -1.338144e-01
    endloop
  endfacet
  facet normal  9.984024e-01  5.028920e-04 -5.650272e-02
    outer loop
      vertex   1.494019e+00  1.754764e-08 -1.338144e-01
      vertex   1.492293e+00  1.400000e+00 -1.518529e-01
      vertex   1.499898e+00  1.400000e+00 -1.747342e-02
    endloop
  endfacet
  facet normal  9.990025e-01 -4.844801e-04 -4.465142e-02
    outer loop
      vertex   1.494019e+00  1.754764e-08 -1.338144e-01
      vertex   1.499898e+00  1.400000e+00 -1.747342e-02
      vertex   1.500000e+00  0.000000e+00  0.000000e+00
    endloop
  endfacet
  facet normal  9.994478e-01  4.875292e-04  3.322498e-02
    outer loop
      vertex   1.500000e+00  0.000000e+00  0.000000e+00
      vertex   1.499898e+00  1.400000e+00 -1.747342e-02
      vertex   1.495426e+00  1.400000e+00  1.170467e-01
    endloop
  endfacet
  facet normal  9.990025e-01 -4.692303e-04  4.465142e-02
    outer loop
      vertex   1.500000e+00  0.000000e+00  0.000000e+00
      vertex   1.495426e+00  1.400000e+00  1.170467e-01
      vertex   1.494019e+00 -1.754764e-08  1.338144e-01
    endloop
  endfacet
  facet normal  9.924462e-01  4.718979e-04  1.226798e-01
    outer loop
      vertex   1.494019e+00 -1.754764e-08  1.338144e-01
      vertex   1.495426e+00  1.400000e+00  1.170467e-01
      vertex   1.478914e+00  1.400000e+00  2.506246e-01
    endloop
  endfacet
  facet normal  9.910366e-01 -4.535667e-04  1.335894e-01
    outer loop
      vertex   1.494019e+00 -1.754764e-08  1.338144e-01
      vertex   1.478914e+00  1.400000e+00  2.506246e-01
      vertex   1.476125e+00 -3.495534e-08  2.665617e-01
    endloop
  endfacet
  facet normal  9.774531e-01  4.564418e-04  2.111524e-01
    outer loop
      vertex   1.476125e+00 -3.495534e-08  2.665617e-01
      vertex   1.478914e+00  1.400000e+00  2.506246e-01
      vertex   1.450494e+00  1.400000e+00  3.821845e-01
    endloop
  endfacet
  facet normal  9.751663e-01 -4.378245e-04  2.214736e-01
    outer loop
      vertex   1.476125e+00 -3.495534e-08  2.665617e-01
      vertex   1.450494e+00  1.400000e+00  3.821845e-01
      vertex   1.446459e+00 -5.208431e-08  3.971833e-01
    endloop
  endfacet
  facet normal  9.545915e-01  4.404529e-04  2.979178e-01
    outer loop
      vertex   1.446459e+00 -5.208431e-08  3.971833e-01
      vertex   1.450494e+00  1.400000e+00  3.821845e-01
      vertex   1.410396e+00  1.400000e+00  5.106672e-01
    endloop
  endfacet
  facet normal  9.515235e-01 -4.214411e-04  3.075756e-01
    outer loop
      vertex   1.446459e+00 -5.208431e-08  3.971833e-01
      vertex   1.410396e+00  1.400000e+00  5.106672e-01
      vertex   1.405260e+00 -6.879795e-08  5.246378e-01
    endloop
  endfacet
  facet normal  9.240455e-01  4.248623e-04  3.822822e-01
    outer loop
      vertex   1.405260e+00 -6.879795e-08  5.246378e-01
      vertex   1.410396e+00  1.400000e+00  5.106672e-01
      vertex   1.358943e+00  1.400000e+00  6.350384e-01
    endloop
  endfacet
  facet normal  9.202881e-01 -4.059032e-04  3.912409e-01
    outer loop
      vertex   1.405260e+00 -6.879795e-08  5.246378e-01
      vertex   1.358943e+00  1.400000e+00  6.350384e-01
      vertex   1.352854e+00 -8.496296e-08  6.479086e-01
    endloop
  endfacet
  facet normal  8.860561e-01  4.079757e-04  4.635779e-01
    outer loop
      vertex   1.352854e+00 -8.496296e-08  6.479086e-01
      vertex   1.358943e+00  1.400000e+00  6.350384e-01
      vertex   1.296548e+00  1.400000e+00  7.542966e-01
    endloop
  endfacet
  facet normal  8.817163e-01 -3.898393e-04  4.717798e-01
    outer loop
      vertex   1.352854e+00 -8.496296e-08  6.479086e-01
      vertex   1.296548e+00  1.400000e+00  7.542966e-01
      vertex   1.289660e+00 -1.004505e-07  7.660129e-01
    endloop
  endfacet
  facet normal  8.409348e-01  3.912370e-04  5.411363e-01
    outer loop
      vertex   1.289660e+00 -1.004505e-07  7.660129e-01
      vertex   1.296548e+00  1.400000e+00  7.542966e-01
      vertex   1.223714e+00  1.400000e+00  8.674819e-01
    endloop
  endfacet
  facet normal  8.361176e-01 -3.730077e-04  5.485500e-01
    outer loop
      vertex   1.289660e+00 -1.004505e-07  7.660129e-01
      vertex   1.223714e+00  1.400000e+00  8.674819e-01
      vertex   1.216183e+00 -1.151369e-07  8.780088e-01
    endloop
  endfacet
  facet normal  7.890405e-01  3.749264e-04  6.143411e-01
    outer loop
      vertex   1.216183e+00 -1.151369e-07  8.780088e-01
      vertex   1.223714e+00  1.400000e+00  8.674819e-01
      vertex   1.141027e+00  1.400000e+00  9.736825e-01
    endloop
  endfacet
  facet normal  7.838441e-01 -3.562048e-04  6.209576e-01
    outer loop
      vertex   1.216183e+00 -1.151369e-07  8.780088e-01
      vertex   1.141027e+00  1.400000e+00  9.736825e-01
      vertex   1.133007e+00 -1.289053e-07  9.830033e-01
    endloop
  endfacet
  facet normal  7.307964e-01  3.580521e-04  6.825954e-01
    outer loop
      vertex   1.133007e+00 -1.289053e-07  9.830033e-01
      vertex   1.141027e+00  1.400000e+00  9.736825e-01
      vertex   1.049153e+00  1.400000e+00  1.072044e+00
    endloop
  endfacet
  facet normal  7.253241e-01 -3.393641e-04  6.884074e-01
    outer loop
      vertex   1.133007e+00 -1.289053e-07  9.830033e-01
      vertex   1.049153e+00  1.400000e+00  1.072044e+00
      vertex   1.040796e+00 -1.416457e-07  1.080159e+00
    endloop
  endfacet
  facet normal  6.666648e-01  3.409044e-04  7.453576e-01
    outer loop
      vertex   1.040796e+00 -1.416457e-07  1.080159e+00
      vertex   1.049153e+00  1.400000e+00  1.072044e+00
      vertex   9.488325e-01  1.400000e+00  1.161773e+00
    endloop
  endfacet
  facet normal  6.610183e-01 -3.221962e-04  7.503697e-01
    outer loop
      vertex   1.040796e+00 -1.416457e-07  1.080159e+00
      vertex   9.488325e-01  1.400000e+00  1.161773e+00
      vertex   9.402856e-01 -1.532567e-07  1.168701e+00
    endloop
  endfacet
  facet normal  5.971701e-01  3.236516e-04  8.021145e-01
    outer loop
      vertex   9.402856e-01 -1.532567e-07  1.168701e+00
      vertex   9.488325e-01  1.400000e+00  1.161773e+00
      vertex   8.408721e-01  1.400000e+00  1.242149e+00
    endloop
  endfacet
  facet normal  5.914456e-01 -3.047736e-04  8.063449e-01
    outer loop
      vertex   9.402856e-01 -1.532567e-07  1.168701e+00
      vertex   8.408721e-01  1.400000e+00  1.242149e+00
      vertex   8.322772e-01 -1.636455e-07  1.247924e+00
    endloop
  endfacet
  facet normal  5.228672e-01  3.062825e-04  8.524141e-01
    outer loop
      vertex   8.322772e-01 -1.636455e-07  1.247924e+00
      vertex   8.408721e-01  1.400000e+00  1.242149e+00
      vertex   7.261418e-01  1.400000e+00  1.312524e+00
    endloop
  endfacet
  facet normal  5.171500e-01 -2.877577e-04  8.558947e-01
    outer loop
      vertex   8.322772e-01 -1.636455e-07  1.247924e+00
      vertex   7.261418e-01  1.400000e+00  1.312524e+00
      vertex   7.176322e-01 -1.727293e-07  1.317195e+00
    endloop
  endfacet
  facet normal  4.443492e-01  2.880630e-04  8.958536e-01
    outer loop
      vertex   7.176322e-01 -1.727293e-07  1.317195e+00
      vertex   7.261418e-01  1.400000e+00  1.312524e+00
      vertex   6.055649e-01  1.400000e+00  1.372331e+00
    endloop
  endfacet
  facet normal  4.387373e-01 -2.699274e-04  8.986153e-01
    outer loop
      vertex   7.176322e-01 -1.727293e-07  1.317195e+00
      vertex   6.055649e-01  1.400000e+00  1.372331e+00
      vertex   5.972644e-01 -1.804358e-07  1.375963e+00
    endloop
  endfacet
  facet normal  3.622585e-01  2.703207e-04  9.320776e-01
    outer loop
      vertex   5.972644e-01 -1.804358e-07  1.375963e+00
      vertex   6.055649e-01  1.400000e+00  1.372331e+00
      vertex   4.801123e-01  1.400000e+00  1.421089e+00
    endloop
  endfacet
  facet normal  3.568243e-01 -2.519098e-04  9.341714e-01
    outer loop
      vertex   5.972644e-01 -1.804358e-07  1.375963e+00
      vertex   4.801123e-01  1.400000e+00  1.421089e+00
      vertex   4.721340e-01 -1.867034e-07  1.423759e+00
    endloop
  endfacet
  facet normal  2.772475e-01  2.523601e-04  9.607986e-01
    outer loop
      vertex   4.721340e-01 -1.867034e-07  1.423759e+00
      vertex   4.801123e-01  1.400000e+00  1.421089e+00
      vertex   3.507942e-01  1.400000e+00  1.458405e+00
    endloop
  endfacet
  facet normal  2.720614e-01 -2.337804e-04  9.622799e-01
    outer loop
      vertex   4.721340e-01 -1.867034e-07  1.423759e+00
      vertex   3.507942e-01  1.400000e+00  1.458405e+00
      vertex   3.432387e-01 -1.914822e-07  1.460201e+00
    endloop
  endfacet
  facet normal  1.900083e-01  2.340595e-04  9.817824e-01
    outer loop
      vertex   3.432387e-01 -1.914822e-07  1.460201e+00
      vertex   3.507942e-01  1.400000e+00  1.458405e+00
      vertex   2.186516e-01  1.400000e+00  1.483979e+00
    endloop
  endfacet
  facet normal  1.851318e-01 -2.157189e-04  9.827136e-01
    outer loop
      vertex   3.432387e-01 -1.914822e-07  1.460201e+00
      vertex   2.186516e-01  1.400000e+00  1.483979e+00
      vertex   2.116062e-01 -1.947341e-07  1.484999e+00
    endloop
  endfacet
  facet normal  1.012294e-01  2.153655e-04  9.948630e-01
    outer loop
      vertex   2.116062e-01 -1.947341e-07  1.484999e+00
      vertex   2.186516e-01  1.400000e+00  1.483979e+00
      vertex   8.474867e-02  1.400000e+00  1.497604e+00
    endloop
  endfacet
  facet normal  9.673143e-02 -1.962366e-04  9.953105e-01
    outer loop
      vertex   2.116062e-01 -1.947341e-07  1.484999e+00
      vertex   8.474867e-02  1.400000e+00  1.497604e+00
      vertex   7.828639e-02 -1.964332e-07  1.497956e+00
    endloop
  endfacet
  facet normal  1.165040e-02  1.976522e-04  9.999322e-01
    outer loop
      vertex   7.828639e-02 -1.964332e-07  1.497956e+00
      vertex   8.474867e-02  1.400000e+00  1.497604e+00
      vertex  -4.983666e-02  1.400000e+00  1.499172e+00
    endloop
  endfacet
  facet normal  7.547813e-03 -1.778359e-04  9.999714e-01
    outer loop
      vertex   7.828639e-02 -1.964332e-07  1.497956e+00
      vertex  -4.983666e-02  1.400000e+00  1.499172e+00
      vertex  -5.565771e-02 -1.965658e-07  1.498967e+00
    endloop
  endfacet
  facet normal -7.802777e-02  1.784204e-04  9.969512e-01
    outer loop
      vertex  -5.565771e-02 -1.965658e-07  1.498967e+00
      vertex  -4.983666e-02  1.400000e+00  1.499172e+00
      vertex  -1.840207e-01  1.400000e+00  1.488670e+00
    endloop
  endfacet
  facet normal -8.168831e-02 -1.593635e-04  9.966579e-01
    outer loop
      vertex  -5.565771e-02 -1.965658e-07  1.498967e+00
      vertex  -1.840207e-01  1.400000e+00  1.488670e+00
      vertex  -1.891580e-01 -1.951310e-07  1.488025e+00
    endloop
  endfacet
  facet normal -1.670866e-01  1.589424e-04  9.859422e-01
    outer loop
      vertex  -1.891580e-01 -1.951310e-07  1.488025e+00
      vertex  -1.840207e-01  1.400000e+00  1.488670e+00
      vertex  -3.167232e-01  1.400000e+00  1.466181e+00
    endloop
  endfacet
  facet normal -1.702686e-01 -1.394970e-04  9.853977e-01
    outer loop
      vertex  -1.891580e-01 -1.951310e-07  1.488025e+00
      vertex  -3.167232e-01  1.400000e+00  1.466181e+00
      vertex  -3.211499e-01 -1.921401e-07  1.465218e+00
    endloop
  endfacet
  facet normal -2.547883e-01  1.404064e-04  9.669968e-01
    outer loop
      vertex  -3.211499e-01 -1.921401e-07  1.465218e+00
      vertex  -3.167232e-01  1.400000e+00  1.466181e+00
      vertex  -4.468755e-01  1.400000e+00  1.431888e+00
    endloop
  endfacet
  facet normal -2.575031e-01 -1.205255e-04  9.662775e-01
    outer loop
      vertex  -3.211499e-01 -1.921401e-07  1.465218e+00
      vertex  -4.468755e-01  1.400000e+00  1.431888e+00
      vertex  -4.505808e-01 -1.876170e-07  1.430726e+00
    endloop
  endfacet
  facet normal -3.404449e-01  1.205871e-04  9.402645e-01
    outer loop
      vertex  -4.505808e-01 -1.876170e-07  1.430726e+00
      vertex  -4.468755e-01  1.400000e+00  1.431888e+00
      vertex  -5.734299e-01  1.400000e+00  1.386066e+00
    endloop
  endfacet
  facet normal -3.426765e-01 -1.011046e-04  9.394535e-01
    outer loop
      vertex  -4.505808e-01 -1.876170e-07  1.430726e+00
      vertex  -5.734299e-01  1.400000e+00  1.386066e+00
      vertex  -5.764187e-01 -1.815979e-07  1.384825e+00
    endloop
  endfacet
  facet normal -4.233599e-01  1.008268e-04  9.059616e-01
    outer loop
      vertex  -5.764187e-01 -1.815979e-07  1.384825e+00
      vertex  -5.734299e-01  1.400000e+00  1.386066e+00
      vertex  -6.953674e-01  1.400000e+00  1.329084e+00
    endloop
  endfacet
  facet normal -4.251138e-01 -8.090167e-05  9.051399e-01
    outer loop
      vertex  -5.764187e-01 -1.815979e-07  1.384825e+00
      vertex  -6.953674e-01  1.400000e+00  1.329084e+00
      vertex  -6.976602e-01 -1.741307e-07  1.327882e+00
    endloop
  endfacet
  facet normal -5.028660e-01  8.144433e-05  8.643644e-01
    outer loop
      vertex  -6.976602e-01 -1.741307e-07  1.327882e+00
      vertex  -6.953674e-01  1.400000e+00  1.329084e+00
      vertex  -8.117061e-01  1.400000e+00  1.261401e+00
    endloop
  endfacet
  facet normal -5.041727e-01 -6.117273e-05  8.636028e-01
    outer loop
      vertex  -6.976602e-01 -1.741307e-07  1.327882e+00
      vertex  -8.117061e-01  1.400000e+00  1.261401e+00
      vertex  -8.133382e-01 -1.652749e-07  1.260349e+00
    endloop
  endfacet
  facet normal -5.783161e-01  6.117701e-05  8.158129e-01
    outer loop
      vertex  -8.133382e-01 -1.652749e-07  1.260349e+00
      vertex  -8.117061e-01  1.400000e+00  1.261401e+00
      vertex  -9.215097e-01  1.400000e+00  1.183563e+00
    endloop
  endfacet
  facet normal -5.791969e-01 -4.117601e-05  8.151876e-01
    outer loop
      vertex  -8.133382e-01 -1.652749e-07  1.260349e+00
      vertex  -9.215097e-01  1.400000e+00  1.183563e+00
      vertex  -9.225306e-01 -1.551011e-07  1.182767e+00
    endloop
  endfacet
  facet normal -6.491238e-01  4.080853e-05  7.606827e-01
    outer loop
      vertex  -9.225306e-01 -1.551011e-07  1.182767e+00
      vertex  -9.215097e-01  1.400000e+00  1.183563e+00
      vertex  -1.023894e+00  1.400000e+00  1.096194e+00
    endloop
  endfacet
  facet normal -7.148432e-01  0.000000e+00  6.992847e-01
    outer loop
      vertex  -1.118034e+00 -1.311342e-07  1.000000e+00
      vertex  -1.024366e+00 -1.436905e-07  1.095752e+00
      vertex  -1.118034e+00  4.999999e-01  1.000000e+00
    endloop
  endfacet
  facet normal  0.000000e+00  1.000000e+00  0.000000e+00
    outer loop
      vertex  -1.118034e+00  4.999999e-01  1.000000e+00
      vertex  -1.199661e+00  4.999999e-01  9.004514e-01
      vertex  -7.499998e+00  4.999999e-01  1.000000e+00
    endloop
  endfacet
  facet normal  0.000000e+00  1.000000e+00  0.000000e+00
    outer loop
      vertex  -7.499998e+00  4.999999e-01  1.000000e+00
      vertex  -1.199661e+00  4.999999e-01  9.004514e-01
      vertex  -1.272452e+00  4.999999e-01  7.942703e-01
    endloop
  endfacet
  facet normal  0.000000e+00  1.000000e+00  0.000000e+00
    outer loop
      vertex  -7.499998e+00  4.999999e-01  1.000000e+00
      vertex  -1.272452e+00  4.999999e-01  7.942703e-01
      vertex  -1.335870e+00  4.999999e-01  6.822389e-01
    endloop
  endfacet
  facet normal  0.000000e+00  1.000000e+00  0.000000e+00
    outer loop
      vertex  -1.335870e+00  4.999999e-01  6.822389e-01
      vertex  -1.389449e+00  4.999999e-01  5.651822e-01
      vertex  -7.499998e+00  4.999999e-01  1.000000e+00
    endloop
  endfacet
  facet normal  5.118153e-08  1.000000e+00  7.192604e-07
    outer loop
      vertex  -7.499998e+00  4.999999e-01  1.000000e+00
      vertex  -1.389449e+00  4.999999e-01  5.651822e-01
      vertex  -1.432793e+00  5.000000e-01  4.439625e-01
    endloop
  endfacet
  facet normal -1.438876e-08  1.000000e+00  3.790064e-09
    outer loop
      vertex  -7.499998e+00  4.999999e-01  1.000000e+00
      vertex  -1.432793e+00  5.000000e-01  4.439625e-01
      vertex  -1.465584e+00  5.000000e-01  3.194728e-01
    endloop
  endfacet
  facet normal -1.453199e-08  1.000000e+00  2.520013e-09
    outer loop
      vertex  -1.465584e+00  5.000000e-01  3.194728e-01
      vertex  -1.487580e+00  5.000000e-01  1.926298e-01
      vertex  -7.499998e+00  4.999999e-01  1.000000e+00
    endloop
  endfacet
  facet normal -1.470050e-08  1.000000e+00  1.265154e-09
    outer loop
      vertex  -7.499998e+00  4.999999e-01  1.000000e+00
      vertex  -1.487580e+00  5.000000e-01  1.926298e-01
      vertex  -1.498618e+00  5.000000e-01  6.436803e-02
    endloop
  endfacet
  facet normal -1.489774e-08  1.000000e+00  0.000000e+00
    outer loop
      vertex  -7.499998e+00  4.999999e-01  1.000000e+00
      vertex  -1.498618e+00  5.000000e-01  6.436803e-02
      vertex  -1.498618e+00  5.000000e-01 -6.436789e-02
    endloop
  endfacet
  facet normal  3.601715e-09  1.000000e+00  1.043081e-07
    outer loop
      vertex  -7.499998e+00  4.999999e-01  1.000000e+00
      vertex  -1.498618e+00  5.000000e-01 -6.436789e-02
      vertex  -7.499998e+00  5.000001e-01 -1.000000e+00
    endloop
  endfacet
  facet normal  1.960066e-08  1.000000e+00  1.686847e-09
    outer loop
      vertex  -7.499998e+00  5.000001e-01 -1.000000e+00
      vertex  -1.498618e+00  5.000000e-01 -6.436789e-02
      vertex  -1.487580e+00  5.000000e-01 -1.926297e-01
    endloop
  endfacet
  facet normal  1.937600e-08  1.000000e+00  3.359949e-09
    outer loop
      vertex  -7.499998e+00  5.000001e-01 -1.000000e+00
      vertex  -1.487580e+00  5.000000e-01 -1.926297e-01
      vertex  -1.465584e+00  5.000000e-01 -3.194726e-01
    endloop
  endfacet
  facet normal  1.918502e-08  1.000000e+00  5.053393e-09
    outer loop
      vertex  -1.465584e+00  5.000000e-01 -3.194726e-01
      vertex  -1.432793e+00  5.000000e-01 -4.439625e-01
      vertex  -7.499998e+00  5.000001e-01 -1.000000e+00
    endloop
  endfacet
  facet normal -6.824204e-08  1.000000e+00  9.590138e-07
    outer loop
      vertex  -7.499998e+00  5.000001e-01 -1.000000e+00
      vertex  -1.432793e+00  5.000000e-01 -4.439625e-01
      vertex  -1.389449e+00  5.000001e-01 -5.651822e-01
    endloop
  endfacet
  facet normal  0.000000e+00  1.000000e+00  0.000000e+00
    outer loop
      vertex  -7.499998e+00  5.000001e-01 -1.000000e+00
      vertex  -1.389449e+00  5.000001e-01 -5.651822e-01
      vertex  -1.335870e+00  5.000001e-01 -6.822389e-01
    endloop
  endfacet
  facet normal  0.000000e+00  1.000000e+00  0.000000e+00
    outer loop
      vertex  -1.335870e+00  5.000001e-01 -6.822389e-01
      vertex  -1.272452e+00  5.000001e-01 -7.942703e-01
      vertex  -7.499998e+00  5.000001e-01 -1.000000e+00
    endloop
  endfacet
  facet normal  0.000000e+00  1.000000e+00  0.000000e+00
    outer loop
      vertex  -7.499998e+00  5.000001e-01 -1.000000e+00
      vertex  -1.272452e+00  5.000001e-01 -7.942703e-01
      vertex  -1.199661e+00  5.000001e-01 -9.004514e-01
    endloop
  endfacet
  facet normal  0.000000e+00  1.000000e+00  0.000000e+00
    outer loop
      vertex  -7.499998e+00  5.000001e-01 -1.000000e+00
      vertex  -1.199661e+00  5.000001e-01 -9.004514e-01
      vertex  -1.118034e+00  5.000001e-01 -1.000000e+00
    endloop
  endfacet
  facet normal -1.400291e-14 -1.000000e+00 -1.311335e-07
    outer loop
      vertex  -1.024366e+00  1.436905e-07 -1.095752e+00
      vertex   1.040796e+00  1.416457e-07 -1.080159e+00
      vertex  -1.118034e+00  1.311342e-07 -1.000000e+00
    endloop
  endfacet
  facet normal -2.390359e-14 -1.000000e+00 -1.311338e-07
    outer loop
      vertex  -1.118034e+00  1.311342e-07 -1.000000e+00
      vertex   1.040796e+00  1.416457e-07 -1.080159e+00
      vertex   1.133007e+00  1.289053e-07 -9.830033e-01
    endloop
  endfacet
  facet normal -1.937536e-14 -1.000000e+00 -1.311344e-07
    outer loop
      vertex  -1.118034e+00  1.311342e-07 -1.000000e+00
      vertex   1.133007e+00  1.289053e-07 -9.830033e-01
      vertex   1.216183e+00  1.151369e-07 -8.780088e-01
    endloop
  endfacet
  facet normal  3.062071e-16 -1.000000e+00 -1.311355e-07
    outer loop
      vertex   1.040796e+00  1.416457e-07 -1.080159e+00
      vertex  -1.024366e+00  1.436905e-07 -1.095752e+00
      vertex   9.402856e-01  1.532567e-07 -1.168701e+00
    endloop
  endfacet
  facet normal  6.712919e-14 -1.000000e+00 -1.311337e-07
    outer loop
      vertex   9.402856e-01  1.532567e-07 -1.168701e+00
      vertex  -1.024366e+00  1.436905e-07 -1.095752e+00
      vertex  -9.225306e-01  1.551011e-07 -1.182767e+00
    endloop
  endfacet
  facet normal  6.613053e-14 -1.000000e+00 -1.311335e-07
    outer loop
      vertex   9.402856e-01  1.532567e-07 -1.168701e+00
      vertex  -9.225306e-01  1.551011e-07 -1.182767e+00
      vertex   8.322772e-01  1.636455e-07 -1.247924e+00
    endloop
  endfacet
  facet normal -2.694312e-14 -1.000000e+00 -1.311360e-07
    outer loop
      vertex   8.322772e-01  1.636455e-07 -1.247924e+00
      vertex  -9.225306e-01  1.551011e-07 -1.182767e+00
      vertex  -8.133382e-01  1.652749e-07 -1.260349e+00
    endloop
  endfacet
  facet normal -3.988192e-14 -1.000000e+00 -1.311343e-07
    outer loop
      vertex   8.322772e-01  1.636455e-07 -1.247924e+00
      vertex  -8.133382e-01  1.652749e-07 -1.260349e+00
      vertex   7.176322e-01  1.727293e-07 -1.317195e+00
    endloop
  endfacet
  facet normal  9.818999e-15 -1.000000e+00 -1.311330e-07
    outer loop
      vertex   7.176322e-01  1.727293e-07 -1.317195e+00
      vertex  -8.133382e-01  1.652749e-07 -1.260349e+00
      vertex  -6.976602e-01  1.741307e-07 -1.327882e+00
    endloop
  endfacet
  facet normal  1.991315e-14 -1.000000e+00 -1.311343e-07
    outer loop
      vertex   7.176322e-01  1.727293e-07 -1.317195e+00
      vertex  -6.976602e-01  1.741307e-07 -1.327882e+00
      vertex   5.972644e-01  1.804358e-07 -1.375963e+00
    endloop
  endfacet
  facet normal  1.905684e-14 -1.000000e+00 -1.311343e-07
    outer loop
      vertex   5.972644e-01  1.804358e-07 -1.375963e+00
      vertex  -6.976602e-01  1.741307e-07 -1.327882e+00
      vertex  -5.764187e-01  1.815979e-07 -1.384825e+00
    endloop
  endfacet
  facet normal  5.741576e-15 -1.000000e+00 -1.311326e-07
    outer loop
      vertex   5.972644e-01  1.804358e-07 -1.375963e+00
      vertex  -5.764187e-01  1.815979e-07 -1.384825e+00
      vertex   4.721340e-01  1.867034e-07 -1.423759e+00
    endloop
  endfacet
  facet normal -5.938900e-15 -1.000000e+00 -1.311329e-07
    outer loop
      vertex   4.721340e-01  1.867034e-07 -1.423759e+00
      vertex  -5.764187e-01  1.815979e-07 -1.384825e+00
      vertex  -4.505808e-01  1.876170e-07 -1.430726e+00
    endloop
  endfacet
  facet normal  3.922363e-15 -1.000000e+00 -1.311342e-07
    outer loop
      vertex   4.721340e-01  1.867034e-07 -1.423759e+00
      vertex  -4.505808e-01  1.876170e-07 -1.430726e+00
      vertex   3.432387e-01  1.914822e-07 -1.460201e+00
    endloop
  endfacet
  facet normal -1.869770e-14 -1.000000e+00 -1.311348e-07
    outer loop
      vertex   3.432387e-01  1.914822e-07 -1.460201e+00
      vertex  -4.505808e-01  1.876170e-07 -1.430726e+00
      vertex  -3.211499e-01  1.921401e-07 -1.465218e+00
    endloop
  endfacet
  facet normal -1.557562e-14 -1.000000e+00 -1.311352e-07
    outer loop
      vertex   3.432387e-01  1.914822e-07 -1.460201e+00
      vertex  -3.211499e-01  1.921401e-07 -1.465218e+00
      vertex   2.116062e-01  1.947341e-07 -1.484999e+00
    endloop
  endfacet
  facet normal -1.655679e-13 -1.000000e+00 -1.311393e-07
    outer loop
      vertex   2.116062e-01  1.947341e-07 -1.484999e+00
      vertex  -3.211499e-01  1.921401e-07 -1.465218e+00
      vertex  -1.891580e-01  1.951310e-07 -1.488025e+00
    endloop
  endfacet
  facet normal -2.276495e-13 -1.000000e+00 -1.311311e-07
    outer loop
      vertex   2.116062e-01  1.947341e-07 -1.484999e+00
      vertex  -1.891580e-01  1.951310e-07 -1.488025e+00
      vertex   7.828639e-02  1.964332e-07 -1.497956e+00
    endloop
  endfacet
  facet normal -2.007073e-13 -1.000000e+00 -1.311303e-07
    outer loop
      vertex   7.828639e-02  1.964332e-07 -1.497956e+00
      vertex  -1.891580e-01  1.951310e-07 -1.488025e+00
      vertex  -5.565771e-02  1.965658e-07 -1.498967e+00
    endloop
  endfacet
  facet normal -7.256096e-14 -1.000000e+00 -1.311334e-07
    outer loop
      vertex   1.216183e+00  1.151369e-07 -8.780088e-01
      vertex   1.289660e+00  1.004505e-07 -7.660129e-01
      vertex  -1.118034e+00  1.311342e-07 -1.000000e+00
    endloop
  endfacet
  facet normal  2.635815e-14 -1.000000e+00 -1.311345e-07
    outer loop
      vertex  -1.118034e+00  1.311342e-07 -1.000000e+00
      vertex   1.289660e+00  1.004505e-07 -7.660129e-01
      vertex   1.352854e+00  8.496296e-08 -6.479086e-01
    endloop
  endfacet
  facet normal -6.208071e-15 -1.000000e+00 -1.311342e-07
    outer loop
      vertex  -1.118034e+00  1.311342e-07 -1.000000e+00
      vertex   1.352854e+00  8.496296e-08 -6.479086e-01
      vertex   1.405260e+00  6.879795e-08 -5.246378e-01
    endloop
  endfacet
  facet normal -2.940786e-14 -1.000000e+00 -1.311341e-07
    outer loop
      vertex   1.405260e+00  6.879795e-08 -5.246378e-01
      vertex   1.446459e+00  5.208431e-08 -3.971833e-01
      vertex  -1.118034e+00  1.311342e-07 -1.000000e+00
    endloop
  endfacet
  facet normal  4.481577e-14 -1.000000e+00 -1.311344e-07
    outer loop
      vertex  -1.118034e+00  1.311342e-07 -1.000000e+00
      vertex   1.446459e+00  5.208431e-08 -3.971833e-01
      vertex   1.476125e+00  3.495534e-08 -2.665617e-01
    endloop
  endfacet
  facet normal -4.290149e-14 -1.000000e+00 -1.311341e-07
    outer loop
      vertex  -1.118034e+00  1.311342e-07 -1.000000e+00
      vertex   1.476125e+00  3.495534e-08 -2.665617e-01
      vertex   1.494019e+00  1.754764e-08 -1.338144e-01
    endloop
  endfacet
  facet normal -1.031717e-14 -1.000000e+00 -1.311342e-07
    outer loop
      vertex   1.494019e+00  1.754764e-08 -1.338144e-01
      vertex   1.500000e+00  0.000000e+00  0.000000e+00
      vertex  -1.118034e+00  1.311342e-07 -1.000000e+00
    endloop
  endfacet
  facet normal  0.000000e+00 -1.000000e+00 -1.311342e-07
    outer loop
      vertex  -1.118034e+00  1.311342e-07 -1.000000e+00
      vertex   1.500000e+00  0.000000e+00  0.000000e+00
      vertex  -1.118034e+00 -1.311342e-07  1.000000e+00
    endloop
  endfacet
  facet normal  0.000000e+00 -1.000000e+00 -1.311342e-07
    outer loop
      vertex  -1.118034e+00  1.311342e-07 -1.000000e+00
      vertex  -1.118034e+00 -1.311342e-07  1.000000e+00
      vertex  -7.499998e+00 -1.311342e-07  1.000000e+00
    endloop
  endfacet
  facet normal  1.031717e-14 -1.000000e+00 -1.311342e-07
    outer loop
      vertex   1.500000e+00  0.000000e+00  0.000000e+00
      vertex   1.494019e+00 -1.754764e-08  1.338144e-01
      vertex  -1.118034e+00 -1.311342e-07  1.000000e+00
    endloop
  endfacet
  facet normal  4.290149e-14 -1.000000e+00 -1.311341e-07
    outer loop
      vertex  -1.118034e+00 -1.311342e-07  1.000000e+00
      vertex   1.494019e+00 -1.754764e-08  1.338144e-01
      vertex   1.476125e+00 -3.495534e-08  2.665617e-01
    endloop
  endfacet
  facet normal -4.481577e-14 -1.000000e+00 -1.311344e-07
    outer loop
      vertex  -1.118034e+00 -1.311342e-07  1.000000e+00
      vertex   1.476125e+00 -3.495534e-08  2.665617e-01
      vertex   1.446459e+00 -5.208431e-08  3.971833e-01
    endloop
  endfacet
  facet normal  2.940786e-14 -1.000000e+00 -1.311341e-07
    outer loop
      vertex   1.446459e+00 -5.208431e-08  3.971833e-01
      vertex   1.405260e+00 -6.879795e-08  5.246378e-01
      vertex  -1.118034e+00 -1.311342e-07  1.000000e+00
    endloop
  endfacet
  facet normal  6.208071e-15 -1.000000e+00 -1.311342e-07
    outer loop
      vertex  -1.118034e+00 -1.311342e-07  1.000000e+00
      vertex   1.405260e+00 -6.879795e-08  5.246378e-01
      vertex   1.352854e+00 -8.496296e-08  6.479086e-01
    endloop
  endfacet
  facet normal -2.635815e-14 -1.000000e+00 -1.311345e-07
    outer loop
      vertex  -1.118034e+00 -1.311342e-07  1.000000e+00
      vertex   1.352854e+00 -8.496296e-08  6.479086e-01
      vertex   1.289660e+00 -1.004505e-07  7.660129e-01
    endloop
  endfacet
  facet normal  7.300074e-14 -1.000000e+00 -1.311334e-07
    outer loop
      vertex   1.289660e+00 -1.004505e-07  7.660129e-01
      vertex   1.216183e+00 -1.151369e-07  8.780088e-01
      vertex  -1.118034e+00 -1.311342e-07  1.000000e+00
    endloop
  endfacet
  facet normal  1.937536e-14 -1.000000e+00 -1.311344e-07
    outer loop
      vertex  -1.118034e+00 -1.311342e-07  1.000000e+00
      vertex   1.216183e+00 -1.151369e-07  8.780088e-01
      vertex   1.133007e+00 -1.289053e-07  9.830033e-01
    endloop
  endfacet
  facet normal  2.390359e-14 -1.000000e+00 -1.311338e-07
    outer loop
      vertex  -1.118034e+00 -1.311342e-07  1.000000e+00
      vertex   1.133007e+00 -1.289053e-07  9.830033e-01
      vertex   1.040796e+00 -1.416457e-07  1.080159e+00
    endloop
  endfacet
  facet normal  1.393324e-14 -1.000000e+00 -1.311336e-07
    outer loop
      vertex  -1.118034e+00 -1.311342e-07  1.000000e+00
      vertex   1.040796e+00 -1.416457e-07  1.080159e+00
      vertex  -1.024366e+00 -1.436905e-07  1.095752e+00
    endloop
  endfacet
  facet normal -2.296553e-16 -1.000000e+00 -1.311355e-07
    outer loop
      vertex  -1.024366e+00 -1.436905e-07  1.095752e+00
      vertex   1.040796e+00 -1.416457e-07  1.080159e+00
      vertex   9.402856e-01 -1.532567e-07  1.168701e+00
    endloop
  endfacet
  facet normal -6.721406e-14 -1.000000e+00 -1.311336e-07
    outer loop
      vertex  -1.024366e+00 -1.436905e-07  1.095752e+00
      vertex   9.402856e-01 -1.532567e-07  1.168701e+00
      vertex  -9.225306e-01 -1.551011e-07  1.182767e+00
    endloop
  endfacet
  facet normal -6.613053e-14 -1.000000e+00 -1.311335e-07
    outer loop
      vertex  -9.225306e-01 -1.551011e-07  1.182767e+00
      vertex   9.402856e-01 -1.532567e-07  1.168701e+00
      vertex   8.322772e-01 -1.636455e-07  1.247924e+00
    endloop
  endfacet
  facet normal  2.667422e-14 -1.000000e+00 -1.311360e-07
    outer loop
      vertex  -9.225306e-01 -1.551011e-07  1.182767e+00
      vertex   8.322772e-01 -1.636455e-07  1.247924e+00
      vertex  -8.133382e-01 -1.652749e-07  1.260349e+00
    endloop
  endfacet
  facet normal  3.988192e-14 -1.000000e+00 -1.311343e-07
    outer loop
      vertex  -8.133382e-01 -1.652749e-07  1.260349e+00
      vertex   8.322772e-01 -1.636455e-07  1.247924e+00
      vertex   7.176322e-01 -1.727293e-07  1.317195e+00
    endloop
  endfacet
  facet normal -1.032070e-14 -1.000000e+00 -1.311330e-07
    outer loop
      vertex  -8.133382e-01 -1.652749e-07  1.260349e+00
      vertex   7.176322e-01 -1.727293e-07  1.317195e+00
      vertex  -6.976602e-01 -1.741307e-07  1.327882e+00
    endloop
  endfacet
  facet normal -1.991315e-14 -1.000000e+00 -1.311343e-07
    outer loop
      vertex  -6.976602e-01 -1.741307e-07  1.327882e+00
      vertex   7.176322e-01 -1.727293e-07  1.317195e+00
      vertex   5.972644e-01 -1.804358e-07  1.375963e+00
    endloop
  endfacet
  facet normal -1.880139e-14 -1.000000e+00 -1.311343e-07
    outer loop
      vertex  -6.976602e-01 -1.741307e-07  1.327882e+00
      vertex   5.972644e-01 -1.804358e-07  1.375963e+00
      vertex  -5.764187e-01 -1.815979e-07  1.384825e+00
    endloop
  endfacet
  facet normal -5.741576e-15 -1.000000e+00 -1.311326e-07
    outer loop
      vertex  -5.764187e-01 -1.815979e-07  1.384825e+00
      vertex   5.972644e-01 -1.804358e-07  1.375963e+00
      vertex   4.721340e-01 -1.867034e-07  1.423759e+00
    endloop
  endfacet
  facet normal  5.778389e-15 -1.000000e+00 -1.311329e-07
    outer loop
      vertex  -5.764187e-01 -1.815979e-07  1.384825e+00
      vertex   4.721340e-01 -1.867034e-07  1.423759e+00
      vertex  -4.505808e-01 -1.876170e-07  1.430726e+00
    endloop
  endfacet
  facet normal -3.975367e-15 -1.000000e+00 -1.311342e-07
    outer loop
      vertex  -4.505808e-01 -1.876170e-07  1.430726e+00
      vertex   4.721340e-01 -1.867034e-07  1.423759e+00
      vertex   3.432387e-01 -1.914822e-07  1.460201e+00
    endloop
  endfacet
  facet normal  1.825602e-14 -1.000000e+00 -1.311348e-07
    outer loop
      vertex  -4.505808e-01 -1.876170e-07  1.430726e+00
      vertex   3.432387e-01 -1.914822e-07  1.460201e+00
      vertex  -3.211499e-01 -1.921401e-07  1.465218e+00
    endloop
  endfacet
  facet normal  1.557562e-14 -1.000000e+00 -1.311352e-07
    outer loop
      vertex  -3.211499e-01 -1.921401e-07  1.465218e+00
      vertex   3.432387e-01 -1.914822e-07  1.460201e+00
      vertex   2.116062e-01 -1.947341e-07  1.484999e+00
    endloop
  endfacet
  facet normal  1.658407e-13 -1.000000e+00 -1.311393e-07
    outer loop
      vertex  -3.211499e-01 -1.921401e-07  1.465218e+00
      vertex   2.116062e-01 -1.947341e-07  1.484999e+00
      vertex  -1.891580e-01 -1.951310e-07  1.488025e+00
    endloop
  endfacet
  facet normal  2.276494e-13 -1.000000e+00 -1.311310e-07
    outer loop
      vertex  -1.891580e-01 -1.951310e-07  1.488025e+00
      vertex   2.116062e-01 -1.947341e-07  1.484999e+00
      vertex   7.828639e-02 -1.964332e-07  1.497956e+00
    endloop
  endfacet
  facet normal  2.010460e-13 -1.000000e+00 -1.311303e-07
    outer loop
      vertex  -1.891580e-01 -1.951310e-07  1.488025e+00
      vertex   7.828639e-02 -1.964332e-07  1.497956e+00
      vertex  -5.565771e-02 -1.965658e-07  1.498967e+00
    endloop
  endfacet
  facet normal  0.000000e+00 -1.000000e+00 -1.311342e-07
    outer loop
      vertex  -7.499998e+00 -1.311342e-07  1.000000e+00
      vertex  -7.499998e+00  1.311342e-07 -1.000000e+00
      vertex  -1.118034e+00  1.311342e-07 -1.000000e+00
    endloop
  endfacet
endsolid vcg
