solid STL generated by MeshLab
  facet normal -0.000000e+00 -1.000000e+00  0.000000e+00
    outer loop
      vertex   1.118034e+00  1.000000e+00 -1.000000e+00
      vertex  -1.118034e+00  1.000000e+00 -1.000000e+00
      vertex   1.006921e+00  1.000000e+00 -1.111805e+00
    endloop
  endfacet
  facet normal  0.000000e+00 -1.000000e+00  0.000000e+00
    outer loop
      vertex   1.006921e+00  1.000000e+00 -1.111805e+00
      vertex  -1.118034e+00  1.000000e+00 -1.000000e+00
      vertex  -1.006921e+00  1.000000e+00 -1.111805e+00
    endloop
  endfacet
  facet normal -0.000000e+00 -1.000000e+00  0.000000e+00
    outer loop
      vertex   1.006921e+00  1.000000e+00 -1.111805e+00
      vertex  -1.006921e+00  1.000000e+00 -1.111805e+00
      vertex   8.846880e-01  1.000000e+00 -1.211333e+00
    endloop
  endfacet
  facet normal  0.000000e+00 -1.000000e+00  0.000000e+00
    outer loop
      vertex   8.846880e-01  1.000000e+00 -1.211333e+00
      vertex  -1.006921e+00  1.000000e+00 -1.111805e+00
      vertex  -8.846880e-01  1.000000e+00 -1.211333e+00
    endloop
  endfacet
  facet normal -0.000000e+00 -1.000000e+00  0.000000e+00
    outer loop
      vertex   8.846880e-01  1.000000e+00 -1.211333e+00
      vertex  -8.846880e-01  1.000000e+00 -1.211333e+00
      vertex   7.526862e-01  1.000000e+00 -1.297483e+00
    endloop
  endfacet
  facet normal  0.000000e+00 -1.000000e+00  0.000000e+00
    outer loop
      vertex   7.526862e-01  1.000000e+00 -1.297483e+00
      vertex  -8.846880e-01  1.000000e+00 -1.211333e+00
      vertex  -7.526862e-01  1.000000e+00 -1.297483e+00
    endloop
  endfacet
  facet normal -0.000000e+00 -1.000000e+00  0.000000e+00
    outer loop
      vertex   7.526862e-01  1.000000e+00 -1.297483e+00
      vertex  -7.526862e-01  1.000000e+00 -1.297483e+00
      vertex   6.123723e-01  1.000000e+00 -1.369306e+00
    endloop
  endfacet
  facet normal  0.000000e+00 -1.000000e+00  0.000000e+00
    outer loop
      vertex   6.123723e-01  1.000000e+00 -1.369306e+00
      vertex  -7.526862e-01  1.000000e+00 -1.297483e+00
      vertex  -6.123723e-01  1.000000e+00 -1.369306e+00
    endloop
  endfacet
  facet normal -0.000000e+00 -1.000000e+00  0.000000e+00
    outer loop
      vertex   6.123723e-01  1.000000e+00 -1.369306e+00
      vertex  -6.123723e-01  1.000000e+00 -1.369306e+00
      vertex   4.652961e-01  1.000000e+00 -1.426008e+00
    endloop
  endfacet
  facet normal  0.000000e+00 -1.000000e+00  0.000000e+00
    outer loop
      vertex   4.652961e-01  1.000000e+00 -1.426008e+00
      vertex  -6.123723e-01  1.000000e+00 -1.369306e+00
      vertex  -4.652961e-01  1.000000e+00 -1.426008e+00
    endloop
  endfacet
  facet normal -0.000000e+00 -1.000000e+00  0.000000e+00
    outer loop
      vertex   4.652961e-01  1.000000e+00 -1.426008e+00
      vertex  -4.652961e-01  1.000000e+00 -1.426008e+00
      vertex   3.130817e-01  1.000000e+00 -1.466963e+00
    endloop
  endfacet
  facet normal  0.000000e+00 -1.000000e+00  0.000000e+00
    outer loop
      vertex   3.130817e-01  1.000000e+00 -1.466963e+00
      vertex  -4.652961e-01  1.000000e+00 -1.426008e+00
      vertex  -3.130817e-01  1.000000e+00 -1.466963e+00
    endloop
  endfacet
  facet normal -0.000000e+00 -1.000000e+00  0.000000e+00
    outer loop
      vertex   3.130817e-01  1.000000e+00 -1.466963e+00
      vertex  -3.130817e-01  1.000000e+00 -1.466963e+00
      vertex   1.574100e-01  1.000000e+00 -1.491718e+00
    endloop
  endfacet
  facet normal  0.000000e+00 -1.000000e+00  0.000000e+00
    outer loop
      vertex   1.574100e-01  1.000000e+00 -1.491718e+00
      vertex  -3.130817e-01  1.000000e+00 -1.466963e+00
      vertex  -1.574100e-01  1.000000e+00 -1.491718e+00
    endloop
  endfacet
  facet normal -0.000000e+00 -1.000000e+00  0.000000e+00
    outer loop
      vertex   1.574100e-01  1.000000e+00 -1.491718e+00
      vertex  -1.574100e-01  1.000000e+00 -1.491718e+00
      vertex  -9.184847e-17  1.000000e+00 -1.500000e+00
    endloop
  endfacet
  facet normal  0.000000e+00 -1.000000e+00 -2.665563e-06
    outer loop
      vertex  -1.118034e+00  1.000000e+00  1.000000e+00
      vertex   1.118034e+00  1.000000e+00  1.000000e+00
      vertex  -1.006921e+00  9.999997e-01  1.111805e+00
    endloop
  endfacet
  facet normal  0.000000e+00 -1.000000e+00 -2.665563e-06
    outer loop
      vertex  -1.006921e+00  9.999997e-01  1.111805e+00
      vertex   1.118034e+00  1.000000e+00  1.000000e+00
      vertex   1.006921e+00  9.999997e-01  1.111805e+00
    endloop
  endfacet
  facet normal  0.000000e+00 -1.000000e+00  0.000000e+00
    outer loop
      vertex  -1.006921e+00  9.999997e-01  1.111805e+00
      vertex   1.006921e+00  9.999997e-01  1.111805e+00
      vertex  -8.846880e-01  9.999997e-01  1.211333e+00
    endloop
  endfacet
  facet normal  0.000000e+00 -1.000000e+00  0.000000e+00
    outer loop
      vertex  -8.846880e-01  9.999997e-01  1.211333e+00
      vertex   1.006921e+00  9.999997e-01  1.111805e+00
      vertex   8.846880e-01  9.999997e-01  1.211333e+00
    endloop
  endfacet
  facet normal  0.000000e+00 -1.000000e+00  0.000000e+00
    outer loop
      vertex  -8.846880e-01  9.999997e-01  1.211333e+00
      vertex   8.846880e-01  9.999997e-01  1.211333e+00
      vertex  -7.526862e-01  9.999997e-01  1.297483e+00
    endloop
  endfacet
  facet normal  0.000000e+00 -1.000000e+00  0.000000e+00
    outer loop
      vertex  -7.526862e-01  9.999997e-01  1.297483e+00
      vertex   8.846880e-01  9.999997e-01  1.211333e+00
      vertex   7.526862e-01  9.999997e-01  1.297483e+00
    endloop
  endfacet
  facet normal  0.000000e+00 -1.000000e+00  0.000000e+00
    outer loop
      vertex  -7.526862e-01  9.999997e-01  1.297483e+00
      vertex   7.526862e-01  9.999997e-01  1.297483e+00
      vertex  -6.123723e-01  9.999997e-01  1.369306e+00
    endloop
  endfacet
  facet normal  0.000000e+00 -1.000000e+00  0.000000e+00
    outer loop
      vertex  -6.123723e-01  9.999997e-01  1.369306e+00
      vertex   7.526862e-01  9.999997e-01  1.297483e+00
      vertex   6.123723e-01  9.999997e-01  1.369306e+00
    endloop
  endfacet
  facet normal  0.000000e+00 -1.000000e+00  0.000000e+00
    outer loop
      vertex  -6.123723e-01  9.999997e-01  1.369306e+00
      vertex   6.123723e-01  9.999997e-01  1.369306e+00
      vertex  -4.652961e-01  9.999997e-01  1.426008e+00
    endloop
  endfacet
  facet normal  0.000000e+00 -1.000000e+00  0.000000e+00
    outer loop
      vertex  -4.652961e-01  9.999997e-01  1.426008e+00
      vertex   6.123723e-01  9.999997e-01  1.369306e+00
      vertex   4.652961e-01  9.999997e-01  1.426008e+00
    endloop
  endfacet
  facet normal  0.000000e+00 -1.000000e+00  0.000000e+00
    outer loop
      vertex  -4.652961e-01  9.999997e-01  1.426008e+00
      vertex   4.652961e-01  9.999997e-01  1.426008e+00
      vertex  -3.130817e-01  9.999997e-01  1.466963e+00
    endloop
  endfacet
  facet normal  0.000000e+00 -1.000000e+00  0.000000e+00
    outer loop
      vertex  -3.130817e-01  9.999997e-01  1.466963e+00
      vertex   4.652961e-01  9.999997e-01  1.426008e+00
      vertex   3.130817e-01  9.999997e-01  1.466963e+00
    endloop
  endfacet
  facet normal  0.000000e+00 -1.000000e+00  0.000000e+00
    outer loop
      vertex  -3.130817e-01  9.999997e-01  1.466963e+00
      vertex   3.130817e-01  9.999997e-01  1.466963e+00
      vertex  -1.574100e-01  9.999997e-01  1.491718e+00
    endloop
  endfacet
  facet normal  0.000000e+00 -1.000000e+00  0.000000e+00
    outer loop
      vertex  -1.574100e-01  9.999997e-01  1.491718e+00
      vertex   3.130817e-01  9.999997e-01  1.466963e+00
      vertex   1.574100e-01  9.999997e-01  1.491718e+00
    endloop
  endfacet
  facet normal  0.000000e+00 -1.000000e+00  0.000000e+00
    outer loop
      vertex  -1.574100e-01  9.999997e-01  1.491718e+00
      vertex   1.574100e-01  9.999997e-01  1.491718e+00
      vertex  -9.184847e-17  9.999997e-01  1.500000e+00
    endloop
  endfacet
  facet normal  9.984814e-01  4.676985e-04  5.508721e-02
    outer loop
      vertex   1.490896e+00  2.000000e+00  1.650126e-01
      vertex   1.491857e+00  1.000000e+00  1.560873e-01
      vertex   1.500000e+00  2.000000e+00  2.622683e-07
    endloop
  endfacet
  facet normal  9.986419e-01 -6.831975e-09  5.209915e-02
    outer loop
      vertex   1.500000e+00  2.000000e+00  2.622683e-07
      vertex   1.491857e+00  1.000000e+00  1.560873e-01
      vertex   1.500000e+00  1.000000e+00  1.311342e-07
    endloop
  endfacet
  facet normal  9.986419e-01  6.831977e-09 -5.209916e-02
    outer loop
      vertex   1.500000e+00  2.000000e+00  2.622683e-07
      vertex   1.500000e+00  1.000000e+00  1.311342e-07
      vertex   1.491857e+00  1.000000e+00 -1.560870e-01
    endloop
  endfacet
  facet normal  9.877981e-01 -4.409130e-04  1.557390e-01
    outer loop
      vertex   1.491857e+00  1.000000e+00  1.560873e-01
      vertex   1.490896e+00  2.000000e+00  1.650126e-01
      vertex   1.467515e+00  1.000000e+00  3.104797e-01
    endloop
  endfacet
  facet normal  9.863602e-01  8.814746e-04  1.645986e-01
    outer loop
      vertex   1.467515e+00  1.000000e+00  3.104797e-01
      vertex   1.490896e+00  2.000000e+00  1.650126e-01
      vertex   1.463694e+00  2.000000e+00  3.280219e-01
    endloop
  endfacet
  facet normal  9.662322e-01 -8.281437e-04  2.576717e-01
    outer loop
      vertex   1.467515e+00  1.000000e+00  3.104797e-01
      vertex   1.463694e+00  2.000000e+00  3.280219e-01
      vertex   1.427241e+00  1.000000e+00  4.615011e-01
    endloop
  endfacet
  facet normal  9.622684e-01  1.242137e-03  2.720993e-01
    outer loop
      vertex   1.427241e+00  1.000000e+00  4.615011e-01
      vertex   1.463694e+00  2.000000e+00  3.280219e-01
      vertex   1.418726e+00  2.000000e+00  4.870495e-01
    endloop
  endfacet
  facet normal  9.341717e-01 -1.161638e-03  3.568220e-01
    outer loop
      vertex   1.427241e+00  1.000000e+00  4.615011e-01
      vertex   1.418726e+00  2.000000e+00  4.870495e-01
      vertex   1.371470e+00  1.000000e+00  6.075117e-01
    endloop
  endfacet
  facet normal  9.264911e-01  1.549312e-03  3.763136e-01
    outer loop
      vertex   1.371470e+00  1.000000e+00  6.075117e-01
      vertex   1.418726e+00  2.000000e+00  4.870495e-01
      vertex   1.356535e+00  2.000000e+00  6.401649e-01
    endloop
  endfacet
  facet normal  8.919695e-01 -1.440715e-03  4.520932e-01
    outer loop
      vertex   1.371470e+00  1.000000e+00  6.075117e-01
      vertex   1.356535e+00  2.000000e+00  6.401649e-01
      vertex   1.300808e+00  1.000000e+00  7.469262e-01
    endloop
  endfacet
  facet normal  8.794743e-01  1.801848e-03  4.759431e-01
    outer loop
      vertex   1.300808e+00  1.000000e+00  7.469262e-01
      vertex   1.356535e+00  2.000000e+00  6.401649e-01
      vertex   1.277879e+00  2.000000e+00  7.855096e-01
    endloop
  endfacet
  facet normal  8.400816e-01 -1.667728e-03  5.424575e-01
    outer loop
      vertex   1.300808e+00  1.000000e+00  7.469262e-01
      vertex   1.277879e+00  2.000000e+00  7.855096e-01
      vertex   1.216022e+00  1.000000e+00  8.782308e-01
    endloop
  endfacet
  facet normal  8.217742e-01  2.000850e-03  5.698097e-01
    outer loop
      vertex   1.216022e+00  1.000000e+00  8.782308e-01
      vertex   1.277879e+00  2.000000e+00  7.855096e-01
      vertex   1.183710e+00  2.000000e+00  9.213194e-01
    endloop
  endfacet
  facet normal  7.790772e-01 -1.839808e-03  6.269253e-01
    outer loop
      vertex   1.216022e+00  1.000000e+00  8.782308e-01
      vertex   1.183710e+00  2.000000e+00  9.213194e-01
      vertex   1.118034e+00  1.000000e+00  1.000000e+00
    endloop
  endfacet
  facet normal  7.541037e-01  2.147126e-03  6.567519e-01
    outer loop
      vertex   1.118034e+00  1.000000e+00  1.000000e+00
      vertex   1.183710e+00  2.000000e+00  9.213194e-01
      vertex   1.075173e+00  2.000000e+00  1.045945e+00
    endloop
  endfacet
  facet normal  7.092970e-01 -1.985810e-03  7.049069e-01
    outer loop
      vertex   1.118034e+00  1.000000e+00  1.000000e+00
      vertex   1.075173e+00  2.000000e+00  1.045945e+00
      vertex   1.006921e+00  9.999997e-01  1.111805e+00
    endloop
  endfacet
  facet normal  6.772817e-01  2.228682e-03  7.357205e-01
    outer loop
      vertex   1.006921e+00  9.999997e-01  1.111805e+00
      vertex   1.075173e+00  2.000000e+00  1.045945e+00
      vertex   9.535853e-01  2.000000e+00  1.157875e+00
    endloop
  endfacet
  facet normal  6.314077e-01 -2.048298e-03  7.754483e-01
    outer loop
      vertex   1.006921e+00  9.999997e-01  1.111805e+00
      vertex   9.535853e-01  2.000000e+00  1.157875e+00
      vertex   8.846880e-01  9.999997e-01  1.211333e+00
    endloop
  endfacet
  facet normal  5.922354e-01  2.271071e-03  8.057619e-01
    outer loop
      vertex   8.846880e-01  9.999997e-01  1.211333e+00
      vertex   9.535853e-01  2.000000e+00  1.157875e+00
      vertex   8.204220e-01  2.000000e+00  1.255750e+00
    endloop
  endfacet
  facet normal  5.465416e-01 -2.072063e-03  8.374294e-01
    outer loop
      vertex   8.846880e-01  9.999997e-01  1.211333e+00
      vertex   8.204220e-01  2.000000e+00  1.255750e+00
      vertex   7.526862e-01  9.999997e-01  1.297483e+00
    endloop
  endfacet
  facet normal  5.000005e-01  2.273700e-03  8.660222e-01
    outer loop
      vertex   7.526862e-01  9.999997e-01  1.297483e+00
      vertex   8.204220e-01  2.000000e+00  1.255750e+00
      vertex   6.772999e-01  2.000000e+00  1.338382e+00
    endloop
  endfacet
  facet normal  4.556484e-01 -2.056948e-03  8.901575e-01
    outer loop
      vertex   7.526862e-01  9.999997e-01  1.297483e+00
      vertex   6.772999e-01  2.000000e+00  1.338382e+00
      vertex   6.123723e-01  9.999997e-01  1.369306e+00
    endloop
  endfacet
  facet normal  4.016920e-01  2.238412e-03  9.157721e-01
    outer loop
      vertex   6.123723e-01  9.999997e-01  1.369306e+00
      vertex   6.772999e-01  2.000000e+00  1.338382e+00
      vertex   5.259562e-01  2.000000e+00  1.404767e+00
    endloop
  endfacet
  facet normal  3.597207e-01 -2.001556e-03  9.330578e-01
    outer loop
      vertex   6.123723e-01  9.999997e-01  1.369306e+00
      vertex   5.259562e-01  2.000000e+00  1.404767e+00
      vertex   4.652961e-01  9.999997e-01  1.426008e+00
    endloop
  endfacet
  facet normal  2.985163e-01  2.164485e-03  9.544020e-01
    outer loop
      vertex   4.652961e-01  9.999997e-01  1.426008e+00
      vertex   5.259562e-01  2.000000e+00  1.404767e+00
      vertex   3.682281e-01  2.000000e+00  1.454101e+00
    endloop
  endfacet
  facet normal  2.598201e-01 -1.907801e-03  9.656551e-01
    outer loop
      vertex   4.652961e-01  9.999997e-01  1.426008e+00
      vertex   3.682281e-01  2.000000e+00  1.454101e+00
      vertex   3.130817e-01  9.999997e-01  1.466963e+00
    endloop
  endfacet
  facet normal  1.917062e-01  2.051593e-03  9.814502e-01
    outer loop
      vertex   3.130817e-01  9.999997e-01  1.466963e+00
      vertex   3.682281e-01  2.000000e+00  1.454101e+00
      vertex   2.060303e-01  2.000000e+00  1.485783e+00
    endloop
  endfacet
  facet normal  1.570470e-01 -1.774256e-03  9.875895e-01
    outer loop
      vertex   3.130817e-01  9.999997e-01  1.466963e+00
      vertex   2.060303e-01  2.000000e+00  1.485783e+00
      vertex   1.574100e-01  9.999997e-01  1.491718e+00
    endloop
  endfacet
  facet normal  8.258342e-02  1.899559e-03  9.965823e-01
    outer loop
      vertex   1.574100e-01  9.999997e-01  1.491718e+00
      vertex   2.060303e-01  2.000000e+00  1.485783e+00
      vertex   4.133151e-02  2.000000e+00  1.499431e+00
    endloop
  endfacet
  facet normal  5.254110e-02 -1.603404e-03  9.986175e-01
    outer loop
      vertex   1.574100e-01  9.999997e-01  1.491718e+00
      vertex   4.133151e-02  2.000000e+00  1.499431e+00
      vertex  -9.184847e-17  9.999997e-01  1.500000e+00
    endloop
  endfacet
  facet normal -2.755619e-02  1.707708e-03  9.996188e-01
    outer loop
      vertex  -9.184847e-17  9.999997e-01  1.500000e+00
      vertex   4.133151e-02  2.000000e+00  1.499431e+00
      vertex  -1.238690e-01  2.000000e+00  1.494877e+00
    endloop
  endfacet
  facet normal -5.254112e-02 -1.392278e-03  9.986178e-01
    outer loop
      vertex  -9.184847e-17  9.999997e-01  1.500000e+00
      vertex  -1.238690e-01  2.000000e+00  1.494877e+00
      vertex  -1.574100e-01  9.999997e-01  1.491718e+00
    endloop
  endfacet
  facet normal -1.373505e-01  1.477887e-03  9.905214e-01
    outer loop
      vertex  -1.574100e-01  9.999997e-01  1.491718e+00
      vertex  -1.238690e-01  2.000000e+00  1.494877e+00
      vertex  -2.875659e-01  2.000000e+00  1.472178e+00
    endloop
  endfacet
  facet normal -1.570472e-01 -1.143031e-03  9.875904e-01
    outer loop
      vertex  -1.574100e-01  9.999997e-01  1.491718e+00
      vertex  -2.875659e-01  2.000000e+00  1.472178e+00
      vertex  -3.130817e-01  9.999997e-01  1.466963e+00
    endloop
  endfacet
  facet normal -2.454863e-01  1.208430e-03  9.693992e-01
    outer loop
      vertex  -3.130817e-01  9.999997e-01  1.466963e+00
      vertex  -2.875659e-01  2.000000e+00  1.472178e+00
      vertex  -4.477721e-01  2.000000e+00  1.431608e+00
    endloop
  endfacet
  facet normal -2.598205e-01 -8.545647e-04  9.656565e-01
    outer loop
      vertex  -3.130817e-01  9.999997e-01  1.466963e+00
      vertex  -4.477721e-01  2.000000e+00  1.431608e+00
      vertex  -4.652961e-01  9.999997e-01  1.426008e+00
    endloop
  endfacet
  facet normal -3.506406e-01  9.001844e-04  9.365097e-01
    outer loop
      vertex  -4.652961e-01  9.999997e-01  1.426008e+00
      vertex  -4.477721e-01  2.000000e+00  1.431608e+00
      vertex  -6.025431e-01  2.000000e+00  1.373660e+00
    endloop
  endfacet
  facet normal -3.597214e-01 -5.267361e-04  9.330596e-01
    outer loop
      vertex  -4.652961e-01  9.999997e-01  1.426008e+00
      vertex  -6.025431e-01  2.000000e+00  1.373660e+00
      vertex  -6.123723e-01  9.999997e-01  1.369306e+00
    endloop
  endfacet
  facet normal -4.515334e-01  5.533750e-04  8.922541e-01
    outer loop
      vertex  -6.123723e-01  9.999997e-01  1.369306e+00
      vertex  -6.025431e-01  2.000000e+00  1.373660e+00
      vertex  -7.499999e-01  2.000000e+00  1.299038e+00
    endloop
  endfacet
  facet normal -4.556493e-01 -1.602821e-04  8.901594e-01
    outer loop
      vertex  -6.123723e-01  9.999997e-01  1.369306e+00
      vertex  -7.499999e-01  2.000000e+00  1.299038e+00
      vertex  -7.526862e-01  9.999997e-01  1.297483e+00
    endloop
  endfacet
  facet normal -5.465428e-01  1.658802e-04  8.374311e-01
    outer loop
      vertex  -7.526862e-01  9.999997e-01  1.297483e+00
      vertex  -7.499999e-01  2.000000e+00  1.299038e+00
      vertex  -8.846880e-01  9.999997e-01  1.211333e+00
    endloop
  endfacet
  facet normal -5.469468e-01  2.434375e-04  8.371673e-01
    outer loop
      vertex  -8.846880e-01  9.999997e-01  1.211333e+00
      vertex  -7.499999e-01  2.000000e+00  1.299038e+00
      vertex  -8.883526e-01  2.000000e+00  1.208648e+00
    endloop
  endfacet
  facet normal -6.314090e-01 -2.317868e-04  7.754499e-01
    outer loop
      vertex  -8.846880e-01  9.999997e-01  1.211333e+00
      vertex  -8.883526e-01  2.000000e+00  1.208648e+00
      vertex  -1.006921e+00  9.999997e-01  1.111805e+00
    endloop
  endfacet
  facet normal -6.357247e-01  6.221920e-04  7.719156e-01
    outer loop
      vertex  -1.006921e+00  9.999997e-01  1.111805e+00
      vertex  -8.883526e-01  2.000000e+00  1.208648e+00
      vertex  -1.015922e+00  2.000000e+00  1.103586e+00
    endloop
  endfacet
  facet normal -7.092983e-01 -5.907626e-04  7.049082e-01
    outer loop
      vertex  -1.006921e+00  9.999997e-01  1.111805e+00
      vertex  -1.015922e+00  2.000000e+00  1.103586e+00
      vertex  -1.118034e+00  1.000000e+00  1.000000e+00
    endloop
  endfacet
  facet normal -7.167803e-01  9.615118e-04  6.972983e-01
    outer loop
      vertex  -1.118034e+00  1.000000e+00  1.000000e+00
      vertex  -1.015922e+00  2.000000e+00  1.103586e+00
      vertex  -1.131160e+00  2.000000e+00  9.851283e-01
    endloop
  endfacet
  facet normal -7.790782e-01 -9.027630e-04  6.269261e-01
    outer loop
      vertex  -1.118034e+00  1.000000e+00  1.000000e+00
      vertex  -1.131160e+00  2.000000e+00  9.851283e-01
      vertex  -1.216022e+00  1.000000e+00  8.782308e-01
    endloop
  endfacet
  facet normal -7.891421e-01  1.310689e-03  6.142092e-01
    outer loop
      vertex  -1.216022e+00  1.000000e+00  8.782308e-01
      vertex  -1.131160e+00  2.000000e+00  9.851283e-01
      vertex  -1.232666e+00  2.000000e+00  8.547124e-01
    endloop
  endfacet
  facet normal -8.400821e-01 -1.224630e-03  5.424578e-01
    outer loop
      vertex  -1.216022e+00  1.000000e+00  8.782308e-01
      vertex  -1.232666e+00  2.000000e+00  8.547124e-01
      vertex  -1.300808e+00  1.000000e+00  7.469262e-01
    endloop
  endfacet
  facet normal -8.519183e-01  1.606727e-03  5.236723e-01
    outer loop
      vertex  -1.300808e+00  1.000000e+00  7.469262e-01
      vertex  -1.232666e+00  2.000000e+00  8.547124e-01
      vertex  -1.319210e+00  2.000000e+00  7.139214e-01
    endloop
  endfacet
  facet normal -8.919694e-01 -1.492751e-03  4.520932e-01
    outer loop
      vertex  -1.300808e+00  1.000000e+00  7.469262e-01
      vertex  -1.319210e+00  2.000000e+00  7.139214e-01
      vertex  -1.371470e+00  1.000000e+00  6.075117e-01
    endloop
  endfacet
  facet normal -9.043542e-01  1.848188e-03  4.267786e-01
    outer loop
      vertex  -1.371470e+00  1.000000e+00  6.075117e-01
      vertex  -1.319210e+00  2.000000e+00  7.139214e-01
      vertex  -1.389741e+00  2.000000e+00  5.644643e-01
    endloop
  endfacet
  facet normal -9.341710e-01 -1.708060e-03  3.568218e-01
    outer loop
      vertex  -1.371470e+00  1.000000e+00  6.075117e-01
      vertex  -1.389741e+00  2.000000e+00  5.644643e-01
      vertex  -1.427241e+00  1.000000e+00  4.615011e-01
    endloop
  endfacet
  facet normal -9.458151e-01  2.036010e-03  3.246995e-01
    outer loop
      vertex  -1.427241e+00  1.000000e+00  4.615011e-01
      vertex  -1.389741e+00  2.000000e+00  5.644643e-01
      vertex  -1.443402e+00  2.000000e+00  4.081555e-01
    endloop
  endfacet
  facet normal -9.662308e-01 -1.869587e-03  2.576713e-01
    outer loop
      vertex  -1.427241e+00  1.000000e+00  4.615011e-01
      vertex  -1.443402e+00  2.000000e+00  4.081555e-01
      vertex  -1.467515e+00  1.000000e+00  3.104797e-01
    endloop
  endfacet
  facet normal -9.757940e-01  2.169456e-03  2.186806e-01
    outer loop
      vertex  -1.467515e+00  1.000000e+00  3.104797e-01
      vertex  -1.443402e+00  2.000000e+00  4.081555e-01
      vertex  -1.479542e+00  2.000000e+00  2.468922e-01
    endloop
  endfacet
  facet normal -9.877963e-01 -1.977212e-03  1.557388e-01
    outer loop
      vertex  -1.467515e+00  1.000000e+00  3.104797e-01
      vertex  -1.479542e+00  2.000000e+00  2.468922e-01
      vertex  -1.491857e+00  1.000000e+00  1.560873e-01
    endloop
  endfacet
  facet normal -9.939284e-01  2.251054e-03  1.100061e-01
    outer loop
      vertex  -1.491857e+00  1.000000e+00  1.560873e-01
      vertex  -1.479542e+00  2.000000e+00  2.468922e-01
      vertex  -1.497722e+00  2.000000e+00  8.263191e-02
    endloop
  endfacet
  facet normal -9.986398e-01 -2.030164e-03  5.209904e-02
    outer loop
      vertex  -1.491857e+00  1.000000e+00  1.560873e-01
      vertex  -1.497722e+00  2.000000e+00  8.263191e-02
      vertex  -1.500000e+00  1.000000e+00  1.311342e-07
    endloop
  endfacet
  facet normal -9.999974e-01  2.277964e-03  0.000000e+00
    outer loop
      vertex  -1.500000e+00  1.000000e+00  1.311342e-07
      vertex  -1.497722e+00  2.000000e+00  8.263191e-02
      vertex  -1.497722e+00  2.000000e+00 -8.263137e-02
    endloop
  endfacet
  facet normal -9.986398e-01 -2.030151e-03 -5.209905e-02
    outer loop
      vertex  -1.500000e+00  1.000000e+00  1.311342e-07
      vertex  -1.497722e+00  2.000000e+00 -8.263137e-02
      vertex  -1.491857e+00  1.000000e+00 -1.560870e-01
    endloop
  endfacet
  facet normal -9.939283e-01  2.251083e-03 -1.100061e-01
    outer loop
      vertex  -1.491857e+00  1.000000e+00 -1.560870e-01
      vertex  -1.497722e+00  2.000000e+00 -8.263137e-02
      vertex  -1.479542e+00  2.000000e+00 -2.468916e-01
    endloop
  endfacet
  facet normal -9.877963e-01 -1.977166e-03 -1.557388e-01
    outer loop
      vertex  -1.491857e+00  1.000000e+00 -1.560870e-01
      vertex  -1.479542e+00  2.000000e+00 -2.468916e-01
      vertex  -1.467515e+00  1.000000e+00 -3.104794e-01
    endloop
  endfacet
  facet normal -9.757940e-01  2.169518e-03 -2.186806e-01
    outer loop
      vertex  -1.467515e+00  1.000000e+00 -3.104794e-01
      vertex  -1.479542e+00  2.000000e+00 -2.468916e-01
      vertex  -1.443402e+00  2.000000e+00 -4.081549e-01
    endloop
  endfacet
  facet normal -9.662308e-01 -1.869523e-03 -2.576714e-01
    outer loop
      vertex  -1.467515e+00  1.000000e+00 -3.104794e-01
      vertex  -1.443402e+00  2.000000e+00 -4.081549e-01
      vertex  -1.427241e+00  1.000000e+00 -4.615008e-01
    endloop
  endfacet
  facet normal -9.458151e-01  2.036076e-03 -3.246993e-01
    outer loop
      vertex  -1.427241e+00  1.000000e+00 -4.615008e-01
      vertex  -1.443402e+00  2.000000e+00 -4.081549e-01
      vertex  -1.389741e+00  2.000000e+00 -5.644638e-01
    endloop
  endfacet
  facet normal -9.341710e-01 -1.708000e-03 -3.568217e-01
    outer loop
      vertex  -1.427241e+00  1.000000e+00 -4.615008e-01
      vertex  -1.389741e+00  2.000000e+00 -5.644638e-01
      vertex  -1.371470e+00  1.000000e+00 -6.075114e-01
    endloop
  endfacet
  facet normal -9.043540e-01  1.848286e-03 -4.267791e-01
    outer loop
      vertex  -1.371470e+00  1.000000e+00 -6.075114e-01
      vertex  -1.389741e+00  2.000000e+00 -5.644638e-01
      vertex  -1.319210e+00  2.000000e+00 -7.139208e-01
    endloop
  endfacet
  facet normal -8.919694e-01 -1.492610e-03 -4.520933e-01
    outer loop
      vertex  -1.371470e+00  1.000000e+00 -6.075114e-01
      vertex  -1.319210e+00  2.000000e+00 -7.139208e-01
      vertex  -1.300808e+00  1.000000e+00 -7.469259e-01
    endloop
  endfacet
  facet normal -8.519183e-01  1.606876e-03 -5.236721e-01
    outer loop
      vertex  -1.300808e+00  1.000000e+00 -7.469259e-01
      vertex  -1.319210e+00  2.000000e+00 -7.139208e-01
      vertex  -1.232666e+00  2.000000e+00 -8.547118e-01
    endloop
  endfacet
  facet normal -8.400828e-01 -1.224341e-03 -5.424567e-01
    outer loop
      vertex  -1.300808e+00  1.000000e+00 -7.469259e-01
      vertex  -1.232666e+00  2.000000e+00 -8.547118e-01
      vertex  -1.216022e+00  1.000000e+00 -8.782308e-01
    endloop
  endfacet
  facet normal -7.891421e-01  1.311055e-03 -6.142092e-01
    outer loop
      vertex  -1.216022e+00  1.000000e+00 -8.782308e-01
      vertex  -1.232666e+00  2.000000e+00 -8.547118e-01
      vertex  -1.131160e+00  2.000000e+00 -9.851277e-01
    endloop
  endfacet
  facet normal -7.790782e-01 -9.023928e-04 -6.269261e-01
    outer loop
      vertex  -1.216022e+00  1.000000e+00 -8.782308e-01
      vertex  -1.131160e+00  2.000000e+00 -9.851277e-01
      vertex  -1.118034e+00  1.000000e+00 -1.000000e+00
    endloop
  endfacet
  facet normal -7.167820e-01  9.618777e-04 -6.972965e-01
    outer loop
      vertex  -1.118034e+00  1.000000e+00 -1.000000e+00
      vertex  -1.131160e+00  2.000000e+00 -9.851277e-01
      vertex  -1.015922e+00  2.000000e+00 -1.103586e+00
    endloop
  endfacet
  facet normal -7.092984e-01 -5.907606e-04 -7.049082e-01
    outer loop
      vertex  -1.118034e+00  1.000000e+00 -1.000000e+00
      vertex  -1.015922e+00  2.000000e+00 -1.103586e+00
      vertex  -1.006921e+00  1.000000e+00 -1.111805e+00
    endloop
  endfacet
  facet normal -6.357208e-01  6.222532e-04 -7.719188e-01
    outer loop
      vertex  -1.006921e+00  1.000000e+00 -1.111805e+00
      vertex  -1.015922e+00  2.000000e+00 -1.103586e+00
      vertex  -8.883526e-01  2.000000e+00 -1.208647e+00
    endloop
  endfacet
  facet normal -6.314090e-01 -2.309510e-04 -7.754499e-01
    outer loop
      vertex  -1.006921e+00  1.000000e+00 -1.111805e+00
      vertex  -8.883526e-01  2.000000e+00 -1.208647e+00
      vertex  -8.846880e-01  1.000000e+00 -1.211333e+00
    endloop
  endfacet
  facet normal -5.469514e-01  2.443111e-04 -8.371644e-01
    outer loop
      vertex  -8.846880e-01  1.000000e+00 -1.211333e+00
      vertex  -8.883526e-01  2.000000e+00 -1.208647e+00
      vertex  -7.499999e-01  2.000000e+00 -1.299038e+00
    endloop
  endfacet
  facet normal -5.465428e-01  1.658781e-04 -8.374312e-01
    outer loop
      vertex  -8.846880e-01  1.000000e+00 -1.211333e+00
      vertex  -7.499999e-01  2.000000e+00 -1.299038e+00
      vertex  -7.526862e-01  1.000000e+00 -1.297483e+00
    endloop
  endfacet
  facet normal -4.556493e-01 -1.602802e-04 -8.901594e-01
    outer loop
      vertex  -7.526862e-01  1.000000e+00 -1.297483e+00
      vertex  -7.499999e-01  2.000000e+00 -1.299038e+00
      vertex  -6.123723e-01  1.000000e+00 -1.369306e+00
    endloop
  endfacet
  facet normal -4.515334e-01  5.533751e-04 -8.922541e-01
    outer loop
      vertex  -6.123723e-01  1.000000e+00 -1.369306e+00
      vertex  -7.499999e-01  2.000000e+00 -1.299038e+00
      vertex  -6.025431e-01  2.000000e+00 -1.373660e+00
    endloop
  endfacet
  facet normal -3.597214e-01 -5.267385e-04 -9.330596e-01
    outer loop
      vertex  -6.123723e-01  1.000000e+00 -1.369306e+00
      vertex  -6.025431e-01  2.000000e+00 -1.373660e+00
      vertex  -4.652961e-01  1.000000e+00 -1.426008e+00
    endloop
  endfacet
  facet normal -3.506348e-01  9.010777e-04 -9.365118e-01
    outer loop
      vertex  -4.652961e-01  1.000000e+00 -1.426008e+00
      vertex  -6.025431e-01  2.000000e+00 -1.373660e+00
      vertex  -4.477721e-01  2.000000e+00 -1.431607e+00
    endloop
  endfacet
  facet normal -2.598205e-01 -8.535298e-04 -9.656565e-01
    outer loop
      vertex  -4.652961e-01  1.000000e+00 -1.426008e+00
      vertex  -4.477721e-01  2.000000e+00 -1.431607e+00
      vertex  -3.130817e-01  1.000000e+00 -1.466963e+00
    endloop
  endfacet
  facet normal -2.454870e-01  1.209373e-03 -9.693990e-01
    outer loop
      vertex  -3.130817e-01  1.000000e+00 -1.466963e+00
      vertex  -4.477721e-01  2.000000e+00 -1.431607e+00
      vertex  -2.875659e-01  2.000000e+00 -1.472177e+00
    endloop
  endfacet
  facet normal -1.570472e-01 -1.142089e-03 -9.875904e-01
    outer loop
      vertex  -3.130817e-01  1.000000e+00 -1.466963e+00
      vertex  -2.875659e-01  2.000000e+00 -1.472177e+00
      vertex  -1.574100e-01  1.000000e+00 -1.491718e+00
    endloop
  endfacet
  facet normal -1.373504e-01  1.478832e-03 -9.905214e-01
    outer loop
      vertex  -1.574100e-01  1.000000e+00 -1.491718e+00
      vertex  -2.875659e-01  2.000000e+00 -1.472177e+00
      vertex  -1.238690e-01  2.000000e+00 -1.494876e+00
    endloop
  endfacet
  facet normal -5.254113e-02 -1.391326e-03 -9.986178e-01
    outer loop
      vertex  -1.574100e-01  1.000000e+00 -1.491718e+00
      vertex  -1.238690e-01  2.000000e+00 -1.494876e+00
      vertex  -9.184847e-17  1.000000e+00 -1.500000e+00
    endloop
  endfacet
  facet normal -2.755619e-02  1.708661e-03 -9.996188e-01
    outer loop
      vertex  -9.184847e-17  1.000000e+00 -1.500000e+00
      vertex  -1.238690e-01  2.000000e+00 -1.494876e+00
      vertex   4.133151e-02  2.000000e+00 -1.499430e+00
    endloop
  endfacet
  facet normal  5.254111e-02 -1.602452e-03 -9.986175e-01
    outer loop
      vertex  -9.184847e-17  1.000000e+00 -1.500000e+00
      vertex   4.133151e-02  2.000000e+00 -1.499430e+00
      vertex   1.574100e-01  1.000000e+00 -1.491718e+00
    endloop
  endfacet
  facet normal  8.257769e-02  1.899841e-03 -9.965828e-01
    outer loop
      vertex   1.574100e-01  1.000000e+00 -1.491718e+00
      vertex   4.133151e-02  2.000000e+00 -1.499430e+00
      vertex   2.060303e-01  2.000000e+00 -1.485783e+00
    endloop
  endfacet
  facet normal  1.570470e-01 -1.774256e-03 -9.875895e-01
    outer loop
      vertex   1.574100e-01  1.000000e+00 -1.491718e+00
      vertex   2.060303e-01  2.000000e+00 -1.485783e+00
      vertex   3.130817e-01  1.000000e+00 -1.466963e+00
    endloop
  endfacet
  facet normal  1.917117e-01  2.052209e-03 -9.814491e-01
    outer loop
      vertex   3.130817e-01  1.000000e+00 -1.466963e+00
      vertex   2.060303e-01  2.000000e+00 -1.485783e+00
      vertex   3.682281e-01  2.000000e+00 -1.454100e+00
    endloop
  endfacet
  facet normal  2.598201e-01 -1.906881e-03 -9.656551e-01
    outer loop
      vertex   3.130817e-01  1.000000e+00 -1.466963e+00
      vertex   3.682281e-01  2.000000e+00 -1.454100e+00
      vertex   4.652961e-01  1.000000e+00 -1.426008e+00
    endloop
  endfacet
  facet normal  2.985110e-01  2.164840e-03 -9.544038e-01
    outer loop
      vertex   4.652961e-01  1.000000e+00 -1.426008e+00
      vertex   3.682281e-01  2.000000e+00 -1.454100e+00
      vertex   5.259562e-01  2.000000e+00 -1.404767e+00
    endloop
  endfacet
  facet normal  3.597207e-01 -2.001558e-03 -9.330579e-01
    outer loop
      vertex   4.652961e-01  1.000000e+00 -1.426008e+00
      vertex   5.259562e-01  2.000000e+00 -1.404767e+00
      vertex   6.123723e-01  1.000000e+00 -1.369306e+00
    endloop
  endfacet
  facet normal  4.016969e-01  2.238906e-03 -9.157699e-01
    outer loop
      vertex   6.123723e-01  1.000000e+00 -1.369306e+00
      vertex   5.259562e-01  2.000000e+00 -1.404767e+00
      vertex   6.772999e-01  2.000000e+00 -1.338381e+00
    endloop
  endfacet
  facet normal  4.556484e-01 -2.056101e-03 -8.901575e-01
    outer loop
      vertex   6.123723e-01  1.000000e+00 -1.369306e+00
      vertex   6.772999e-01  2.000000e+00 -1.338381e+00
      vertex   7.526862e-01  1.000000e+00 -1.297483e+00
    endloop
  endfacet
  facet normal  5.000004e-01  2.274526e-03 -8.660222e-01
    outer loop
      vertex   7.526862e-01  1.000000e+00 -1.297483e+00
      vertex   6.772999e-01  2.000000e+00 -1.338381e+00
      vertex   8.204220e-01  2.000000e+00 -1.255749e+00
    endloop
  endfacet
  facet normal  5.465416e-01 -2.071268e-03 -8.374293e-01
    outer loop
      vertex   7.526862e-01  1.000000e+00 -1.297483e+00
      vertex   8.204220e-01  2.000000e+00 -1.255749e+00
      vertex   8.846880e-01  1.000000e+00 -1.211333e+00
    endloop
  endfacet
  facet normal  5.922316e-01  2.271476e-03 -8.057646e-01
    outer loop
      vertex   8.846880e-01  1.000000e+00 -1.211333e+00
      vertex   8.204220e-01  2.000000e+00 -1.255749e+00
      vertex   9.535853e-01  2.000000e+00 -1.157875e+00
    endloop
  endfacet
  facet normal  6.314077e-01 -2.048301e-03 -7.754484e-01
    outer loop
      vertex   8.846880e-01  1.000000e+00 -1.211333e+00
      vertex   9.535853e-01  2.000000e+00 -1.157875e+00
      vertex   1.006921e+00  1.000000e+00 -1.111805e+00
    endloop
  endfacet
  facet normal  6.772817e-01  2.228682e-03 -7.357205e-01
    outer loop
      vertex   1.006921e+00  1.000000e+00 -1.111805e+00
      vertex   9.535853e-01  2.000000e+00 -1.157875e+00
      vertex   1.075173e+00  2.000000e+00 -1.045945e+00
    endloop
  endfacet
  facet normal  7.092971e-01 -1.985813e-03 -7.049069e-01
    outer loop
      vertex   1.006921e+00  1.000000e+00 -1.111805e+00
      vertex   1.075173e+00  2.000000e+00 -1.045945e+00
      vertex   1.118034e+00  1.000000e+00 -1.000000e+00
    endloop
  endfacet
  facet normal  7.541052e-01  2.147275e-03 -6.567501e-01
    outer loop
      vertex   1.118034e+00  1.000000e+00 -1.000000e+00
      vertex   1.075173e+00  2.000000e+00 -1.045945e+00
      vertex   1.183710e+00  2.000000e+00 -9.213188e-01
    endloop
  endfacet
  facet normal  7.790772e-01 -1.839438e-03 -6.269253e-01
    outer loop
      vertex   1.118034e+00  1.000000e+00 -1.000000e+00
      vertex   1.183710e+00  2.000000e+00 -9.213188e-01
      vertex   1.216022e+00  1.000000e+00 -8.782308e-01
    endloop
  endfacet
  facet normal  8.217739e-01  2.001167e-03 -5.698101e-01
    outer loop
      vertex   1.216022e+00  1.000000e+00 -8.782308e-01
      vertex   1.183710e+00  2.000000e+00 -9.213188e-01
      vertex   1.277879e+00  2.000000e+00 -7.855091e-01
    endloop
  endfacet
  facet normal  8.400823e-01 -1.667610e-03 -5.424564e-01
    outer loop
      vertex   1.216022e+00  1.000000e+00 -8.782308e-01
      vertex   1.277879e+00  2.000000e+00 -7.855091e-01
      vertex   1.300808e+00  1.000000e+00 -7.469259e-01
    endloop
  endfacet
  facet normal  8.794743e-01  1.801905e-03 -4.759431e-01
    outer loop
      vertex   1.300808e+00  1.000000e+00 -7.469259e-01
      vertex   1.277879e+00  2.000000e+00 -7.855091e-01
      vertex   1.356535e+00  2.000000e+00 -6.401644e-01
    endloop
  endfacet
  facet normal  8.919694e-01 -1.440643e-03 -4.520934e-01
    outer loop
      vertex   1.300808e+00  1.000000e+00 -7.469259e-01
      vertex   1.356535e+00  2.000000e+00 -6.401644e-01
      vertex   1.371470e+00  1.000000e+00 -6.075114e-01
    endloop
  endfacet
  facet normal  9.264911e-01  1.549386e-03 -3.763134e-01
    outer loop
      vertex   1.371470e+00  1.000000e+00 -6.075114e-01
      vertex   1.356535e+00  2.000000e+00 -6.401644e-01
      vertex   1.418726e+00  2.000000e+00 -4.870489e-01
    endloop
  endfacet
  facet normal  9.341717e-01 -1.161550e-03 -3.568220e-01
    outer loop
      vertex   1.371470e+00  1.000000e+00 -6.075114e-01
      vertex   1.418726e+00  2.000000e+00 -4.870489e-01
      vertex   1.427241e+00  1.000000e+00 -4.615008e-01
    endloop
  endfacet
  facet normal  9.622683e-01  1.242199e-03 -2.720994e-01
    outer loop
      vertex   1.427241e+00  1.000000e+00 -4.615008e-01
      vertex   1.418726e+00  2.000000e+00 -4.870489e-01
      vertex   1.463694e+00  2.000000e+00 -3.280214e-01
    endloop
  endfacet
  facet normal  9.662322e-01 -8.280914e-04 -2.576717e-01
    outer loop
      vertex   1.427241e+00  1.000000e+00 -4.615008e-01
      vertex   1.463694e+00  2.000000e+00 -3.280214e-01
      vertex   1.467515e+00  1.000000e+00 -3.104794e-01
    endloop
  endfacet
  facet normal  9.863602e-01  8.815085e-04 -1.645986e-01
    outer loop
      vertex   1.467515e+00  1.000000e+00 -3.104794e-01
      vertex   1.463694e+00  2.000000e+00 -3.280214e-01
      vertex   1.490896e+00  2.000000e+00 -1.650121e-01
    endloop
  endfacet
  facet normal  9.877981e-01 -4.408824e-04 -1.557390e-01
    outer loop
      vertex   1.467515e+00  1.000000e+00 -3.104794e-01
      vertex   1.490896e+00  2.000000e+00 -1.650121e-01
      vertex   1.491857e+00  1.000000e+00 -1.560870e-01
    endloop
  endfacet
  facet normal  9.984814e-01  4.677093e-04 -5.508720e-02
    outer loop
      vertex   1.491857e+00  1.000000e+00 -1.560870e-01
      vertex   1.490896e+00  2.000000e+00 -1.650121e-01
      vertex   1.500000e+00  2.000000e+00  2.622683e-07
    endloop
  endfacet
  facet normal  0.000000e+00  1.000000e+00  0.000000e+00
    outer loop
      vertex   1.490896e+00  2.000000e+00  1.650126e-01
      vertex   1.500000e+00  2.000000e+00  2.622683e-07
      vertex  -1.479542e+00  2.000000e+00 -2.468916e-01
    endloop
  endfacet
  facet normal  0.000000e+00  1.000000e+00  0.000000e+00
    outer loop
      vertex  -1.479542e+00  2.000000e+00 -2.468916e-01
      vertex   1.500000e+00  2.000000e+00  2.622683e-07
      vertex   1.490896e+00  2.000000e+00 -1.650121e-01
    endloop
  endfacet
  facet normal -0.000000e+00  1.000000e+00  0.000000e+00
    outer loop
      vertex  -1.479542e+00  2.000000e+00 -2.468916e-01
      vertex   1.490896e+00  2.000000e+00 -1.650121e-01
      vertex   1.463694e+00  2.000000e+00 -3.280214e-01
    endloop
  endfacet
  facet normal  0.000000e+00  1.000000e+00  0.000000e+00
    outer loop
      vertex  -1.479542e+00  2.000000e+00 -2.468916e-01
      vertex   1.463694e+00  2.000000e+00 -3.280214e-01
      vertex  -1.443402e+00  2.000000e+00 -4.081549e-01
    endloop
  endfacet
  facet normal -0.000000e+00  1.000000e+00  0.000000e+00
    outer loop
      vertex  -1.443402e+00  2.000000e+00 -4.081549e-01
      vertex   1.463694e+00  2.000000e+00 -3.280214e-01
      vertex   1.418726e+00  2.000000e+00 -4.870489e-01
    endloop
  endfacet
  facet normal  0.000000e+00  1.000000e+00  0.000000e+00
    outer loop
      vertex  -1.443402e+00  2.000000e+00 -4.081549e-01
      vertex   1.418726e+00  2.000000e+00 -4.870489e-01
      vertex  -1.389741e+00  2.000000e+00 -5.644638e-01
    endloop
  endfacet
  facet normal -0.000000e+00  1.000000e+00  0.000000e+00
    outer loop
      vertex  -1.389741e+00  2.000000e+00 -5.644638e-01
      vertex   1.418726e+00  2.000000e+00 -4.870489e-01
      vertex   1.356535e+00  2.000000e+00 -6.401644e-01
    endloop
  endfacet
  facet normal  0.000000e+00  1.000000e+00  0.000000e+00
    outer loop
      vertex  -1.389741e+00  2.000000e+00 -5.644638e-01
      vertex   1.356535e+00  2.000000e+00 -6.401644e-01
      vertex  -1.319210e+00  2.000000e+00 -7.139208e-01
    endloop
  endfacet
  facet normal -0.000000e+00  1.000000e+00  0.000000e+00
    outer loop
      vertex  -1.319210e+00  2.000000e+00 -7.139208e-01
      vertex   1.356535e+00  2.000000e+00 -6.401644e-01
      vertex   1.277879e+00  2.000000e+00 -7.855091e-01
    endloop
  endfacet
  facet normal  0.000000e+00  1.000000e+00  0.000000e+00
    outer loop
      vertex  -1.319210e+00  2.000000e+00 -7.139208e-01
      vertex   1.277879e+00  2.000000e+00 -7.855091e-01
      vertex  -1.232666e+00  2.000000e+00 -8.547118e-01
    endloop
  endfacet
  facet normal -0.000000e+00  1.000000e+00  0.000000e+00
    outer loop
      vertex  -1.232666e+00  2.000000e+00 -8.547118e-01
      vertex   1.277879e+00  2.000000e+00 -7.855091e-01
      vertex   1.183710e+00  2.000000e+00 -9.213188e-01
    endloop
  endfacet
  facet normal  0.000000e+00  1.000000e+00  0.000000e+00
    outer loop
      vertex  -1.232666e+00  2.000000e+00 -8.547118e-01
      vertex   1.183710e+00  2.000000e+00 -9.213188e-01
      vertex  -1.131160e+00  2.000000e+00 -9.851277e-01
    endloop
  endfacet
  facet normal -0.000000e+00  1.000000e+00  0.000000e+00
    outer loop
      vertex  -1.131160e+00  2.000000e+00 -9.851277e-01
      vertex   1.183710e+00  2.000000e+00 -9.213188e-01
      vertex   1.075173e+00  2.000000e+00 -1.045945e+00
    endloop
  endfacet
  facet normal  0.000000e+00  1.000000e+00  0.000000e+00
    outer loop
      vertex  -1.131160e+00  2.000000e+00 -9.851277e-01
      vertex   1.075173e+00  2.000000e+00 -1.045945e+00
      vertex  -1.015922e+00  2.000000e+00 -1.103586e+00
    endloop
  endfacet
  facet normal -0.000000e+00  1.000000e+00  0.000000e+00
    outer loop
      vertex  -1.015922e+00  2.000000e+00 -1.103586e+00
      vertex   1.075173e+00  2.000000e+00 -1.045945e+00
      vertex   9.535853e-01  2.000000e+00 -1.157875e+00
    endloop
  endfacet
  facet normal  0.000000e+00  1.000000e+00  0.000000e+00
    outer loop
      vertex  -1.015922e+00  2.000000e+00 -1.103586e+00
      vertex   9.535853e-01  2.000000e+00 -1.157875e+00
      vertex  -8.883526e-01  2.000000e+00 -1.208647e+00
    endloop
  endfacet
  facet normal -0.000000e+00  1.000000e+00  0.000000e+00
    outer loop
      vertex  -8.883526e-01  2.000000e+00 -1.208647e+00
      vertex   9.535853e-01  2.000000e+00 -1.157875e+00
      vertex   8.204220e-01  2.000000e+00 -1.255749e+00
    endloop
  endfacet
  facet normal  0.000000e+00  1.000000e+00  0.000000e+00
    outer loop
      vertex  -8.883526e-01  2.000000e+00 -1.208647e+00
      vertex   8.204220e-01  2.000000e+00 -1.255749e+00
      vertex  -7.499999e-01  2.000000e+00 -1.299038e+00
    endloop
  endfacet
  facet normal -0.000000e+00  1.000000e+00  0.000000e+00
    outer loop
      vertex  -7.499999e-01  2.000000e+00 -1.299038e+00
      vertex   8.204220e-01  2.000000e+00 -1.255749e+00
      vertex   6.772999e-01  2.000000e+00 -1.338381e+00
    endloop
  endfacet
  facet normal  0.000000e+00  1.000000e+00  0.000000e+00
    outer loop
      vertex  -7.499999e-01  2.000000e+00 -1.299038e+00
      vertex   6.772999e-01  2.000000e+00 -1.338381e+00
      vertex  -6.025431e-01  2.000000e+00 -1.373660e+00
    endloop
  endfacet
  facet normal -0.000000e+00  1.000000e+00  0.000000e+00
    outer loop
      vertex  -6.025431e-01  2.000000e+00 -1.373660e+00
      vertex   6.772999e-01  2.000000e+00 -1.338381e+00
      vertex   5.259562e-01  2.000000e+00 -1.404767e+00
    endloop
  endfacet
  facet normal  0.000000e+00  1.000000e+00  0.000000e+00
    outer loop
      vertex  -6.025431e-01  2.000000e+00 -1.373660e+00
      vertex   5.259562e-01  2.000000e+00 -1.404767e+00
      vertex  -4.477721e-01  2.000000e+00 -1.431607e+00
    endloop
  endfacet
  facet normal -0.000000e+00  1.000000e+00  0.000000e+00
    outer loop
      vertex  -4.477721e-01  2.000000e+00 -1.431607e+00
      vertex   5.259562e-01  2.000000e+00 -1.404767e+00
      vertex   3.682281e-01  2.000000e+00 -1.454100e+00
    endloop
  endfacet
  facet normal  0.000000e+00  1.000000e+00  0.000000e+00
    outer loop
      vertex  -4.477721e-01  2.000000e+00 -1.431607e+00
      vertex   3.682281e-01  2.000000e+00 -1.454100e+00
      vertex  -2.875659e-01  2.000000e+00 -1.472177e+00
    endloop
  endfacet
  facet normal -0.000000e+00  1.000000e+00  0.000000e+00
    outer loop
      vertex  -2.875659e-01  2.000000e+00 -1.472177e+00
      vertex   3.682281e-01  2.000000e+00 -1.454100e+00
      vertex   2.060303e-01  2.000000e+00 -1.485783e+00
    endloop
  endfacet
  facet normal  0.000000e+00  1.000000e+00  0.000000e+00
    outer loop
      vertex  -2.875659e-01  2.000000e+00 -1.472177e+00
      vertex   2.060303e-01  2.000000e+00 -1.485783e+00
      vertex  -1.238690e-01  2.000000e+00 -1.494876e+00
    endloop
  endfacet
  facet normal -0.000000e+00  1.000000e+00  0.000000e+00
    outer loop
      vertex  -1.238690e-01  2.000000e+00 -1.494876e+00
      vertex   2.060303e-01  2.000000e+00 -1.485783e+00
      vertex   4.133151e-02  2.000000e+00 -1.499430e+00
    endloop
  endfacet
  facet normal -0.000000e+00  1.000000e+00  0.000000e+00
    outer loop
      vertex  -1.497722e+00  2.000000e+00 -8.263137e-02
      vertex  -1.479542e+00  2.000000e+00  2.468922e-01
      vertex  -1.479542e+00  2.000000e+00 -2.468916e-01
    endloop
  endfacet
  facet normal  0.000000e+00  1.000000e+00  0.000000e+00
    outer loop
      vertex  -1.479542e+00  2.000000e+00 -2.468916e-01
      vertex  -1.479542e+00  2.000000e+00  2.468922e-01
      vertex  -1.443402e+00  2.000000e+00  4.081555e-01
    endloop
  endfacet
  facet normal  0.000000e+00  1.000000e+00  0.000000e+00
    outer loop
      vertex  -1.479542e+00  2.000000e+00 -2.468916e-01
      vertex  -1.443402e+00  2.000000e+00  4.081555e-01
      vertex  -1.389741e+00  2.000000e+00  5.644643e-01
    endloop
  endfacet
  facet normal  0.000000e+00  1.000000e+00  0.000000e+00
    outer loop
      vertex  -1.497722e+00  2.000000e+00 -8.263137e-02
      vertex  -1.497722e+00  2.000000e+00  8.263191e-02
      vertex  -1.479542e+00  2.000000e+00  2.468922e-01
    endloop
  endfacet
  facet normal -0.000000e+00  1.000000e+00  0.000000e+00
    outer loop
      vertex  -1.389741e+00  2.000000e+00  5.644643e-01
      vertex  -1.319210e+00  2.000000e+00  7.139214e-01
      vertex  -1.479542e+00  2.000000e+00 -2.468916e-01
    endloop
  endfacet
  facet normal  0.000000e+00  1.000000e+00  0.000000e+00
    outer loop
      vertex  -1.479542e+00  2.000000e+00 -2.468916e-01
      vertex  -1.319210e+00  2.000000e+00  7.139214e-01
      vertex  -1.232666e+00  2.000000e+00  8.547124e-01
    endloop
  endfacet
  facet normal  0.000000e+00  1.000000e+00  0.000000e+00
    outer loop
      vertex  -1.479542e+00  2.000000e+00 -2.468916e-01
      vertex  -1.232666e+00  2.000000e+00  8.547124e-01
      vertex  -1.131160e+00  2.000000e+00  9.851283e-01
    endloop
  endfacet
  facet normal -0.000000e+00  1.000000e+00  0.000000e+00
    outer loop
      vertex  -1.131160e+00  2.000000e+00  9.851283e-01
      vertex  -1.015922e+00  2.000000e+00  1.103586e+00
      vertex  -1.479542e+00  2.000000e+00 -2.468916e-01
    endloop
  endfacet
  facet normal  0.000000e+00  1.000000e+00  0.000000e+00
    outer loop
      vertex  -1.479542e+00  2.000000e+00 -2.468916e-01
      vertex  -1.015922e+00  2.000000e+00  1.103586e+00
      vertex  -8.883526e-01  2.000000e+00  1.208648e+00
    endloop
  endfacet
  facet normal  0.000000e+00  1.000000e+00  0.000000e+00
    outer loop
      vertex  -1.479542e+00  2.000000e+00 -2.468916e-01
      vertex  -8.883526e-01  2.000000e+00  1.208648e+00
      vertex  -7.499999e-01  2.000000e+00  1.299038e+00
    endloop
  endfacet
  facet normal -0.000000e+00  1.000000e+00  0.000000e+00
    outer loop
      vertex  -7.499999e-01  2.000000e+00  1.299038e+00
      vertex  -6.025431e-01  2.000000e+00  1.373660e+00
      vertex  -1.479542e+00  2.000000e+00 -2.468916e-01
    endloop
  endfacet
  facet normal  0.000000e+00  1.000000e+00  0.000000e+00
    outer loop
      vertex  -1.479542e+00  2.000000e+00 -2.468916e-01
      vertex  -6.025431e-01  2.000000e+00  1.373660e+00
      vertex  -4.477721e-01  2.000000e+00  1.431608e+00
    endloop
  endfacet
  facet normal  0.000000e+00  1.000000e+00  0.000000e+00
    outer loop
      vertex  -1.479542e+00  2.000000e+00 -2.468916e-01
      vertex  -4.477721e-01  2.000000e+00  1.431608e+00
      vertex  -2.875659e-01  2.000000e+00  1.472178e+00
    endloop
  endfacet
  facet normal -0.000000e+00  1.000000e+00  0.000000e+00
    outer loop
      vertex  -2.875659e-01  2.000000e+00  1.472178e+00
      vertex  -1.238690e-01  2.000000e+00  1.494877e+00
      vertex  -1.479542e+00  2.000000e+00 -2.468916e-01
    endloop
  endfacet
  facet normal  0.000000e+00  1.000000e+00  0.000000e+00
    outer loop
      vertex  -1.479542e+00  2.000000e+00 -2.468916e-01
      vertex  -1.238690e-01  2.000000e+00  1.494877e+00
      vertex   4.133151e-02  2.000000e+00  1.499431e+00
    endloop
  endfacet
  facet normal  0.000000e+00  1.000000e+00  0.000000e+00
    outer loop
      vertex  -1.479542e+00  2.000000e+00 -2.468916e-01
      vertex   4.133151e-02  2.000000e+00  1.499431e+00
      vertex   2.060303e-01  2.000000e+00  1.485783e+00
    endloop
  endfacet
  facet normal  0.000000e+00  1.000000e+00  0.000000e+00
    outer loop
      vertex   2.060303e-01  2.000000e+00  1.485783e+00
      vertex   3.682281e-01  2.000000e+00  1.454101e+00
      vertex  -1.479542e+00  2.000000e+00 -2.468916e-01
    endloop
  endfacet
  facet normal  0.000000e+00  1.000000e+00  0.000000e+00
    outer loop
      vertex  -1.479542e+00  2.000000e+00 -2.468916e-01
      vertex   3.682281e-01  2.000000e+00  1.454101e+00
      vertex   5.259562e-01  2.000000e+00  1.404767e+00
    endloop
  endfacet
  facet normal  0.000000e+00  1.000000e+00  0.000000e+00
    outer loop
      vertex  -1.479542e+00  2.000000e+00 -2.468916e-01
      vertex   5.259562e-01  2.000000e+00  1.404767e+00
      vertex   6.772999e-01  2.000000e+00  1.338382e+00
    endloop
  endfacet
  facet normal  0.000000e+00  1.000000e+00  0.000000e+00
    outer loop
      vertex   6.772999e-01  2.000000e+00  1.338382e+00
      vertex   8.204220e-01  2.000000e+00  1.255750e+00
      vertex  -1.479542e+00  2.000000e+00 -2.468916e-01
    endloop
  endfacet
  facet normal  0.000000e+00  1.000000e+00  0.000000e+00
    outer loop
      vertex  -1.479542e+00  2.000000e+00 -2.468916e-01
      vertex   8.204220e-01  2.000000e+00  1.255750e+00
      vertex   9.535853e-01  2.000000e+00  1.157875e+00
    endloop
  endfacet
  facet normal  0.000000e+00  1.000000e+00  0.000000e+00
    outer loop
      vertex  -1.479542e+00  2.000000e+00 -2.468916e-01
      vertex   9.535853e-01  2.000000e+00  1.157875e+00
      vertex   1.075173e+00  2.000000e+00  1.045945e+00
    endloop
  endfacet
  facet normal  0.000000e+00  1.000000e+00  0.000000e+00
    outer loop
      vertex   1.075173e+00  2.000000e+00  1.045945e+00
      vertex   1.183710e+00  2.000000e+00  9.213194e-01
      vertex  -1.479542e+00  2.000000e+00 -2.468916e-01
    endloop
  endfacet
  facet normal  0.000000e+00  1.000000e+00  0.000000e+00
    outer loop
      vertex  -1.479542e+00  2.000000e+00 -2.468916e-01
      vertex   1.183710e+00  2.000000e+00  9.213194e-01
      vertex   1.277879e+00  2.000000e+00  7.855096e-01
    endloop
  endfacet
  facet normal  0.000000e+00  1.000000e+00  0.000000e+00
    outer loop
      vertex  -1.479542e+00  2.000000e+00 -2.468916e-01
      vertex   1.277879e+00  2.000000e+00  7.855096e-01
      vertex   1.356535e+00  2.000000e+00  6.401649e-01
    endloop
  endfacet
  facet normal  0.000000e+00  1.000000e+00  0.000000e+00
    outer loop
      vertex   1.356535e+00  2.000000e+00  6.401649e-01
      vertex   1.418726e+00  2.000000e+00  4.870495e-01
      vertex  -1.479542e+00  2.000000e+00 -2.468916e-01
    endloop
  endfacet
  facet normal  0.000000e+00  1.000000e+00  0.000000e+00
    outer loop
      vertex  -1.479542e+00  2.000000e+00 -2.468916e-01
      vertex   1.418726e+00  2.000000e+00  4.870495e-01
      vertex   1.463694e+00  2.000000e+00  3.280219e-01
    endloop
  endfacet
  facet normal  0.000000e+00  1.000000e+00  0.000000e+00
    outer loop
      vertex  -1.479542e+00  2.000000e+00 -2.468916e-01
      vertex   1.463694e+00  2.000000e+00  3.280219e-01
      vertex   1.490896e+00  2.000000e+00  1.650126e-01
    endloop
  endfacet
  facet normal  0.000000e+00  1.000000e+00  0.000000e+00
    outer loop
      vertex   1.118034e+00  1.000000e+00 -1.000000e+00
      vertex   1.216022e+00  1.000000e+00 -8.782308e-01
      vertex   6.999998e+00  1.000000e+00 -1.000000e+00
    endloop
  endfacet
  facet normal  0.000000e+00  1.000000e+00  0.000000e+00
    outer loop
      vertex   6.999998e+00  1.000000e+00 -1.000000e+00
      vertex   1.216022e+00  1.000000e+00 -8.782308e-01
      vertex   1.300808e+00  1.000000e+00 -7.469259e-01
    endloop
  endfacet
  facet normal  0.000000e+00  1.000000e+00  0.000000e+00
    outer loop
      vertex   6.999998e+00  1.000000e+00 -1.000000e+00
      vertex   1.300808e+00  1.000000e+00 -7.469259e-01
      vertex   1.371470e+00  1.000000e+00 -6.075114e-01
    endloop
  endfacet
  facet normal -0.000000e+00  1.000000e+00  0.000000e+00
    outer loop
      vertex   1.371470e+00  1.000000e+00 -6.075114e-01
      vertex   1.427241e+00  1.000000e+00 -4.615008e-01
      vertex   6.999998e+00  1.000000e+00 -1.000000e+00
    endloop
  endfacet
  facet normal  0.000000e+00  1.000000e+00  0.000000e+00
    outer loop
      vertex   6.999998e+00  1.000000e+00 -1.000000e+00
      vertex   1.427241e+00  1.000000e+00 -4.615008e-01
      vertex   1.467515e+00  1.000000e+00 -3.104794e-01
    endloop
  endfacet
  facet normal  0.000000e+00  1.000000e+00  0.000000e+00
    outer loop
      vertex   6.999998e+00  1.000000e+00 -1.000000e+00
      vertex   1.467515e+00  1.000000e+00 -3.104794e-01
      vertex   1.491857e+00  1.000000e+00 -1.560870e-01
    endloop
  endfacet
  facet normal -0.000000e+00  1.000000e+00  0.000000e+00
    outer loop
      vertex   1.491857e+00  1.000000e+00 -1.560870e-01
      vertex   1.500000e+00  1.000000e+00  1.311342e-07
      vertex   6.999998e+00  1.000000e+00 -1.000000e+00
    endloop
  endfacet
  facet normal  0.000000e+00  1.000000e+00 -0.000000e+00
    outer loop
      vertex   6.999998e+00  1.000000e+00 -1.000000e+00
      vertex   1.500000e+00  1.000000e+00  1.311342e-07
      vertex   6.999998e+00  1.000000e+00  1.000000e+00
    endloop
  endfacet
  facet normal  0.000000e+00  1.000000e+00  0.000000e+00
    outer loop
      vertex   6.999998e+00  1.000000e+00  1.000000e+00
      vertex   1.500000e+00  1.000000e+00  1.311342e-07
      vertex   1.491857e+00  1.000000e+00  1.560873e-01
    endloop
  endfacet
  facet normal  0.000000e+00  1.000000e+00  0.000000e+00
    outer loop
      vertex   6.999998e+00  1.000000e+00  1.000000e+00
      vertex   1.491857e+00  1.000000e+00  1.560873e-01
      vertex   1.467515e+00  1.000000e+00  3.104797e-01
    endloop
  endfacet
  facet normal  0.000000e+00  1.000000e+00 -0.000000e+00
    outer loop
      vertex   1.467515e+00  1.000000e+00  3.104797e-01
      vertex   1.427241e+00  1.000000e+00  4.615011e-01
      vertex   6.999998e+00  1.000000e+00  1.000000e+00
    endloop
  endfacet
  facet normal  0.000000e+00  1.000000e+00  0.000000e+00
    outer loop
      vertex   6.999998e+00  1.000000e+00  1.000000e+00
      vertex   1.427241e+00  1.000000e+00  4.615011e-01
      vertex   1.371470e+00  1.000000e+00  6.075117e-01
    endloop
  endfacet
  facet normal  0.000000e+00  1.000000e+00  0.000000e+00
    outer loop
      vertex   6.999998e+00  1.000000e+00  1.000000e+00
      vertex   1.371470e+00  1.000000e+00  6.075117e-01
      vertex   1.300808e+00  1.000000e+00  7.469262e-01
    endloop
  endfacet
  facet normal  0.000000e+00  1.000000e+00 -0.000000e+00
    outer loop
      vertex   1.300808e+00  1.000000e+00  7.469262e-01
      vertex   1.216022e+00  1.000000e+00  8.782308e-01
      vertex   6.999998e+00  1.000000e+00  1.000000e+00
    endloop
  endfacet
  facet normal  0.000000e+00  1.000000e+00  0.000000e+00
    outer loop
      vertex   6.999998e+00  1.000000e+00  1.000000e+00
      vertex   1.216022e+00  1.000000e+00  8.782308e-01
      vertex   1.118034e+00  1.000000e+00  1.000000e+00
    endloop
  endfacet
  facet normal  0.000000e+00  1.000000e+00  0.000000e+00
    outer loop
      vertex  -1.118034e+00  1.000000e+00  1.000000e+00
      vertex  -1.216022e+00  1.000000e+00  8.782308e-01
      vertex  -6.999998e+00  1.000000e+00  1.000000e+00
    endloop
  endfacet
  facet normal  0.000000e+00  1.000000e+00  0.000000e+00
    outer loop
      vertex  -6.999998e+00  1.000000e+00  1.000000e+00
      vertex  -1.216022e+00  1.000000e+00  8.782308e-01
      vertex  -1.300808e+00  1.000000e+00  7.469262e-01
    endloop
  endfacet
  facet normal  0.000000e+00  1.000000e+00  0.000000e+00
    outer loop
      vertex  -6.999998e+00  1.000000e+00  1.000000e+00
      vertex  -1.300808e+00  1.000000e+00  7.469262e-01
      vertex  -1.371470e+00  1.000000e+00  6.075117e-01
    endloop
  endfacet
  facet normal  0.000000e+00  1.000000e+00  0.000000e+00
    outer loop
      vertex  -1.371470e+00  1.000000e+00  6.075117e-01
      vertex  -1.427241e+00  1.000000e+00  4.615011e-01
      vertex  -6.999998e+00  1.000000e+00  1.000000e+00
    endloop
  endfacet
  facet normal  0.000000e+00  1.000000e+00  0.000000e+00
    outer loop
      vertex  -6.999998e+00  1.000000e+00  1.000000e+00
      vertex  -1.427241e+00  1.000000e+00  4.615011e-01
      vertex  -1.467515e+00  1.000000e+00  3.104797e-01
    endloop
  endfacet
  facet normal  0.000000e+00  1.000000e+00  0.000000e+00
    outer loop
      vertex  -6.999998e+00  1.000000e+00  1.000000e+00
      vertex  -1.467515e+00  1.000000e+00  3.104797e-01
      vertex  -1.491857e+00  1.000000e+00  1.560873e-01
    endloop
  endfacet
  facet normal  0.000000e+00  1.000000e+00  0.000000e+00
    outer loop
      vertex  -1.491857e+00  1.000000e+00  1.560873e-01
      vertex  -1.500000e+00  1.000000e+00  1.311342e-07
      vertex  -6.999998e+00  1.000000e+00  1.000000e+00
    endloop
  endfacet
  facet normal  0.000000e+00  1.000000e+00  0.000000e+00
    outer loop
      vertex  -6.999998e+00  1.000000e+00  1.000000e+00
      vertex  -1.500000e+00  1.000000e+00  1.311342e-07
      vertex  -6.999998e+00  1.000000e+00 -1.000000e+00
    endloop
  endfacet
  facet normal  0.000000e+00  1.000000e+00  0.000000e+00
    outer loop
      vertex  -6.999998e+00  1.000000e+00 -1.000000e+00
      vertex  -1.500000e+00  1.000000e+00  1.311342e-07
      vertex  -1.491857e+00  1.000000e+00 -1.560870e-01
    endloop
  endfacet
  facet normal  0.000000e+00  1.000000e+00  0.000000e+00
    outer loop
      vertex  -6.999998e+00  1.000000e+00 -1.000000e+00
      vertex  -1.491857e+00  1.000000e+00 -1.560870e-01
      vertex  -1.467515e+00  1.000000e+00 -3.104794e-01
    endloop
  endfacet
  facet normal  0.000000e+00  1.000000e+00  0.000000e+00
    outer loop
      vertex  -1.467515e+00  1.000000e+00 -3.104794e-01
      vertex  -1.427241e+00  1.000000e+00 -4.615008e-01
      vertex  -6.999998e+00  1.000000e+00 -1.000000e+00
    endloop
  endfacet
  facet normal  0.000000e+00  1.000000e+00  0.000000e+00
    outer loop
      vertex  -6.999998e+00  1.000000e+00 -1.000000e+00
      vertex  -1.427241e+00  1.000000e+00 -4.615008e-01
      vertex  -1.371470e+00  1.000000e+00 -6.075114e-01
    endloop
  endfacet
  facet normal  0.000000e+00  1.000000e+00  0.000000e+00
    outer loop
      vertex  -6.999998e+00  1.000000e+00 -1.000000e+00
      vertex  -1.371470e+00  1.000000e+00 -6.075114e-01
      vertex  -1.300808e+00  1.000000e+00 -7.469259e-01
    endloop
  endfacet
  facet normal  0.000000e+00  1.000000e+00  0.000000e+00
    outer loop
      vertex  -1.300808e+00  1.000000e+00 -7.469259e-01
      vertex  -1.216022e+00  1.000000e+00 -8.782308e-01
      vertex  -6.999998e+00  1.000000e+00 -1.000000e+00
    endloop
  endfacet
  facet normal  0.000000e+00  1.000000e+00  0.000000e+00
    outer loop
      vertex  -6.999998e+00  1.000000e+00 -1.000000e+00
      vertex  -1.216022e+00  1.000000e+00 -8.782308e-01
      vertex  -1.118034e+00  1.000000e+00 -1.000000e+00
    endloop
  endfacet
  facet normal -1.000000e+00  0.000000e+00  0.000000e+00
    outer loop
      vertex  -6.999998e+00  1.311342e-07 -1.000000e+00
      vertex  -6.999998e+00 -1.311342e-07  1.000000e+00
      vertex  -6.999998e+00  1.000000e+00 -1.000000e+00
    endloop
  endfacet
  facet normal -1.000000e+00  0.000000e+00  0.000000e+00
    outer loop
      vertex  -6.999998e+00  1.000000e+00 -1.000000e+00
      vertex  -6.999998e+00 -1.311342e-07  1.000000e+00
      vertex  -6.999998e+00  1.000000e+00  1.000000e+00
    endloop
  endfacet
  facet normal -0.000000e+00 -0.000000e+00 -1.000000e+00
    outer loop
      vertex   6.999998e+00  1.000000e+00 -1.000000e+00
      vertex   6.999998e+00  1.311342e-07 -1.000000e+00
      vertex   1.118034e+00  1.000000e+00 -1.000000e+00
    endloop
  endfacet
  facet normal  0.000000e+00 -0.000000e+00 -1.000000e+00
    outer loop
      vertex   1.118034e+00  1.000000e+00 -1.000000e+00
      vertex   6.999998e+00  1.311342e-07 -1.000000e+00
      vertex  -6.999998e+00  1.311342e-07 -1.000000e+00
    endloop
  endfacet
  facet normal -0.000000e+00  0.000000e+00 -1.000000e+00
    outer loop
      vertex   1.118034e+00  1.000000e+00 -1.000000e+00
      vertex  -6.999998e+00  1.311342e-07 -1.000000e+00
      vertex  -1.118034e+00  1.000000e+00 -1.000000e+00
    endloop
  endfacet
  facet normal -0.000000e+00  0.000000e+00 -1.000000e+00
    outer loop
      vertex  -1.118034e+00  1.000000e+00 -1.000000e+00
      vertex  -6.999998e+00  1.311342e-07 -1.000000e+00
      vertex  -6.999998e+00  1.000000e+00 -1.000000e+00
    endloop
  endfacet
  facet normal  1.000000e+00 -0.000000e+00  0.000000e+00
    outer loop
      vertex   6.999998e+00 -1.311342e-07  1.000000e+00
      vertex   6.999998e+00  1.311342e-07 -1.000000e+00
      vertex   6.999998e+00  1.000000e+00  1.000000e+00
    endloop
  endfacet
  facet normal  1.000000e+00  0.000000e+00  0.000000e+00
    outer loop
      vertex   6.999998e+00  1.000000e+00  1.000000e+00
      vertex   6.999998e+00  1.311342e-07 -1.000000e+00
      vertex   6.999998e+00  1.000000e+00 -1.000000e+00
    endloop
  endfacet
  facet normal -0.000000e+00  0.000000e+00  1.000000e+00
    outer loop
      vertex  -6.999998e+00  1.000000e+00  1.000000e+00
      vertex  -6.999998e+00 -1.311342e-07  1.000000e+00
      vertex  -1.118034e+00  1.000000e+00  1.000000e+00
    endloop
  endfacet
  facet normal  0.000000e+00  0.000000e+00  1.000000e+00
    outer loop
      vertex  -1.118034e+00  1.000000e+00  1.000000e+00
      vertex  -6.999998e+00 -1.311342e-07  1.000000e+00
      vertex   6.999998e+00 -1.311342e-07  1.000000e+00
    endloop
  endfacet
  facet normal -0.000000e+00  0.000000e+00  1.000000e+00
    outer loop
      vertex  -1.118034e+00  1.000000e+00  1.000000e+00
      vertex   6.999998e+00 -1.311342e-07  1.000000e+00
      vertex   1.118034e+00  1.000000e+00  1.000000e+00
    endloop
  endfacet
  facet normal -0.000000e+00  0.000000e+00  1.000000e+00
    outer loop
      vertex   1.118034e+00  1.000000e+00  1.000000e+00
      vertex   6.999998e+00 -1.311342e-07  1.000000e+00
      vertex   6.999998e+00  1.000000e+00  1.000000e+00
    endloop
  endfacet
  facet normal -0.000000e+00 -1.000000e+00 -1.311342e-07
    outer loop
      vertex   6.999998e+00 -1.311342e-07  1.000000e+00
      vertex  -6.999998e+00 -1.311342e-07  1.000000e+00
      vertex   6.999998e+00  1.311342e-07 -1.000000e+00
    endloop
  endfacet
  facet normal -0.000000e+00 -1.000000e+00 -1.311342e-07
    outer loop
      vertex   6.999998e+00  1.311342e-07 -1.000000e+00
      vertex  -6.999998e+00 -1.311342e-07  1.000000e+00
      vertex  -6.999998e+00  1.311342e-07 -1.000000e+00
    endloop
  endfacet
endsolid vcg
